<?xml version="1.0" encoding="UTF-8"?>
<svg id="Layer_1" data-name="Layer 1" xmlns="http://www.w3.org/2000/svg" viewBox="0 0 400 400">
  <defs>
    <style>
      .cls-1 {
        fill: #2e3192;
      }

      .cls-1, .cls-2 {
        stroke-width: 0px;
      }

      .cls-2 {
        fill: #fff;
      }
    </style>
  </defs>
  <polygon class="cls-1" points="358.01 291.23 358.01 108.77 200 17.54 41.99 108.77 41.99 291.23 200 382.46 358.01 291.23"/>
  <path class="cls-2" d="m289.46,145.96v40.91h-23.7v-40.91h-28.8v40.91h-52.69c-7.11-21.53-27.74-36.9-51.84-36.06-27.18.96-49.39,22.9-50.64,50.07-1.4,30.19,22.66,55.1,52.54,55.1,22.76,0,42.14-14.46,49.47-34.69h121.23c7.31,0,13.23-5.92,13.23-13.23v-62.09h-28.8Zm-155.13,86.21c-15.9,0-28.79-12.89-28.79-28.79s12.89-28.79,28.79-28.79,28.79,12.89,28.79,28.79-12.89,28.79-28.79,28.79Z"/>
</svg>