<?xml version="1.0" encoding="UTF-8"?>
<svg id="Layer_1" data-name="Layer 1" xmlns="http://www.w3.org/2000/svg" xmlns:xlink="http://www.w3.org/1999/xlink" viewBox="0 0 400 400">
  <defs>
    <style>
      .cls-1 {
        filter: url(#drop-shadow-1);
      }

      .cls-2 {
        fill: #f2f2f2;
      }

      .cls-2, .cls-3, .cls-4, .cls-5, .cls-6, .cls-7, .cls-8 {
        stroke-width: 0px;
      }

      .cls-3 {
        fill: #faa633;
      }

      .cls-4 {
        fill: #76787a;
      }

      .cls-5 {
        fill: #1b75bb;
      }

      .cls-6 {
        fill: #ccc;
      }

      .cls-7 {
        fill: #fff;
      }

      .cls-8 {
        fill: #e6e6e6;
      }
    </style>
    <filter id="drop-shadow-1" filterUnits="userSpaceOnUse">
      <feOffset dx="-6.77" dy="0"/>
      <feGaussianBlur result="blur" stdDeviation="84.65"/>
      <feFlood flood-color="#000" flood-opacity=".25"/>
      <feComposite in2="blur" operator="in"/>
      <feComposite in="SourceGraphic"/>
    </filter>
  </defs>
  <g class="cls-1">
    <g>
      <path class="cls-5" d="m318.29,22.19L79.64,54.94c-3.7.51-6.6,3.42-7.1,7.12l-19.11,141.59,249.2-34.2c.72-.1,1.29-.65,1.41-1.36l23.57-136.26c.96-5.54-3.75-10.41-9.31-9.65Z"/>
      <path class="cls-5" d="m52.89,204.19l.08-.6,19.11-141.59c.52-3.89,3.61-6.98,7.49-7.51l238.65-32.75c2.82-.38,5.53.56,7.51,2.6,1.96,2.03,2.81,4.79,2.33,7.58l-23.57,136.26c-.16.91-.88,1.61-1.81,1.74l-249.8,34.28ZM318.36,22.64L79.7,55.39c-3.48.48-6.24,3.24-6.71,6.73l-19.03,140.99,248.6-34.12c.52-.07.94-.47,1.02-.99l23.57-136.26c.43-2.49-.33-4.97-2.08-6.79-1.76-1.82-4.23-2.68-6.71-2.32h0Z"/>
    </g>
    <g>
      <path class="cls-2" d="m67.73,185.58h246.97c1.82,0,3.3,1.48,3.3,3.3v147.88c0,15.45-12.55,28-28,28H92.43c-15.45,0-28-12.55-28-28v-147.88c0-1.82,1.48-3.3,3.3-3.3Z" transform="translate(-35.64 28.55) rotate(-7.81)"/>
      <path class="cls-5" d="m104.73,378c-7.03,0-13.83-2.28-19.53-6.6-6.9-5.23-11.35-12.84-12.52-21.42l-19.32-140.78c-.47-3.45,1.95-6.64,5.4-7.11l240.36-32.98c3.46-.48,6.64,1.94,7.12,5.4l19.32,140.78c2.43,17.72-10,34.11-27.72,36.54l-188.62,25.88c-1.49.2-2.99.31-4.48.31Zm195.24-207.3c-.21,0-.42.01-.64.04l-240.36,32.98c-1.23.17-2.32.81-3.07,1.8-.75.99-1.07,2.21-.9,3.44l19.32,140.78c1.11,8.14,5.34,15.36,11.88,20.32,6.55,4.97,14.63,7.1,22.78,5.97l188.62-25.88c8.14-1.11,15.36-5.34,20.32-11.89,4.97-6.55,7.09-14.64,5.97-22.78l-19.32-140.78c-.32-2.33-2.32-4.02-4.61-4.02Z"/>
    </g>
    <polygon class="cls-6" points="337.74 33.16 97.6 66.16 53.43 202.47 299.32 168.67 337.74 33.16"/>
    <polygon class="cls-8" points="347.12 43.66 104.12 77.01 54.25 202.36 304.65 168 347.12 43.66"/>
    <g>
      <path class="cls-7" d="m113.13,203.37h157.82c15.19,0,27.52,12.33,27.52,27.52v93.13c0,12.66-10.28,22.93-22.93,22.93H108.54c-12.66,0-22.93-10.28-22.93-22.93v-93.13c0-15.19,12.33-27.52,27.52-27.52Z" transform="translate(-35.63 28.66) rotate(-7.81)"/>
      <path class="cls-6" d="m283.91,335.15l-165.77,22.83c-9.59,1.32-22.86-5-24.18-14.59h0s210.89-28.94,210.89-28.94h0c1.32,9.59-11.35,19.39-20.94,20.7Z"/>
      <path class="cls-3" d="m291.18,214.79l-210.89,28.94h0c-1.91-13.93,2.1-28.51,21.76-28.68l160.44-22.02c18.28-4.59,26.77,7.83,28.68,21.76h0Z"/>
      <g>
        <path class="cls-4" d="m185.85,244.67c-1.15,0-2.15-.85-2.31-2.02-.18-1.28.72-2.46,2-2.64l93.82-12.88c1.24-.16,2.46.72,2.64,2,.18,1.28-.72,2.46-2,2.64l-93.82,12.88c-.11.02-.21.02-.32.02Z"/>
        <path class="cls-4" d="m189.75,273.04c-1.15,0-2.15-.85-2.31-2.02-.18-1.28.72-2.46,2-2.64l93.82-12.87c1.25-.2,2.46.72,2.64,2,.18,1.28-.72,2.46-2,2.64l-93.82,12.87c-.11.02-.21.02-.32.02Z"/>
        <path class="cls-6" d="m191.02,282.31c-1.15,0-2.15-.85-2.31-2.02-.18-1.28.72-2.46,2-2.64l55.17-7.57c1.24-.2,2.46.72,2.64,2,.18,1.28-.72,2.46-2,2.64l-55.17,7.57c-.11.02-.21.02-.32.02Z"/>
        <path class="cls-4" d="m193.58,301.01c-1.15,0-2.15-.85-2.31-2.02-.18-1.28.72-2.46,2-2.64l93.82-12.88c1.25-.19,2.46.72,2.64,2,.18,1.28-.72,2.46-2,2.64l-93.82,12.88c-.11.02-.21.02-.32.02Z"/>
        <path class="cls-6" d="m194.86,310.28c-1.15,0-2.15-.85-2.31-2.02-.18-1.28.72-2.46,2-2.64l93.82-12.88c1.24-.2,2.46.72,2.64,2,.18,1.28-.72,2.46-2,2.64l-93.82,12.88c-.11.02-.21.02-.32.02Z"/>
        <path class="cls-6" d="m196.11,319.38c-1.15,0-2.15-.85-2.31-2.02-.18-1.28.72-2.46,2-2.64l70.63-9.69c1.27-.18,2.46.72,2.64,2,.18,1.28-.72,2.46-2,2.64l-70.63,9.69c-.11.02-.21.02-.32.02Z"/>
        <path class="cls-6" d="m187.07,253.52c-1.15,0-2.15-.85-2.31-2.02-.18-1.28.72-2.46,2-2.64l86.09-11.81c1.27-.15,2.46.72,2.64,2,.18,1.28-.72,2.46-2,2.64l-86.09,11.81c-.11.02-.21.02-.32.02Z"/>
      </g>
      <path class="cls-7" d="m108.77,350.88c-.39,0-.72-.28-.77-.67-.06-.43.24-.82.66-.88l43.05-5.91c.47-.07.82.24.88.66.06.43-.24.82-.66.88l-43.05,5.91s-.07.01-.11.01Z"/>
      <path class="cls-7" d="m159.55,343.91c-.39,0-.72-.28-.77-.67-.06-.43.24-.82.66-.88l89.43-12.27c.46-.07.82.24.88.66.06.43-.24.82-.66.88l-89.43,12.27s-.07.01-.11.01Z"/>
      <path class="cls-7" d="m256.12,330.66c-.39,0-.72-.28-.77-.67-.06-.43.24-.82.66-.88l35.31-4.84c.49-.06.82.24.88.66.06.43-.24.82-.66.88l-35.31,4.84s-.07.01-.11.01Z"/>
      <path class="cls-3" d="m116.56,359.23c-5.46,0-10.74-1.77-15.17-5.12-5.36-4.07-8.81-9.97-9.72-16.64l-13.08-95.29c-1.89-13.75,7.77-26.47,21.52-28.36l163.93-22.5c13.69-1.9,26.47,7.77,28.36,21.52l13.08,95.3c.92,6.66-.82,13.28-4.88,18.64-4.07,5.36-9.97,8.81-16.64,9.72l-163.93,22.5c-1.16.16-2.32.24-3.47.24Zm150.92-165.19c-1,0-2.01.07-3.04.21l-163.93,22.5c-12.13,1.67-20.66,12.9-18.99,25.04l13.08,95.29c.81,5.88,3.86,11.09,8.59,14.68,4.72,3.59,10.54,5.11,16.45,4.31l163.93-22.5c5.88-.81,11.09-3.86,14.68-8.58,3.58-4.73,5.12-10.57,4.31-16.45l-13.08-95.3c-1.53-11.12-11.08-19.21-22-19.21Z"/>
      <g>
        <path class="cls-3" d="m123.17,256.15l6.36-7.51c.24-.28.65-.33.96-.11l7.95,5.83c.19.14.43.18.65.1l9.18-3.2c.35-.12.73.05.89.4l4.09,9.12c.1.22.29.37.52.42l9.55,1.97c.36.07.61.42.58.8l-.87,9.96c-.02.24.07.47.24.63l7.35,6.62c.28.25.33.68.12.98l-5.6,8.14c-.13.19-.17.44-.09.67l3.18,9.49c.12.36-.04.75-.38.91l-8.82,4.13c-.21.1-.36.29-.4.53l-1.84,9.81c-.07.37-.4.63-.77.59l-9.68-.98c-.23-.02-.46.07-.61.25l-6.36,7.51c-.24.28-.65.33-.96.11l-7.95-5.83c-.19-.14-.43-.18-.65-.1l-9.18,3.2c-.35.12-.73-.05-.89-.4l-4.09-9.12c-.1-.22-.29-.37-.52-.42l-9.55-1.97c-.36-.07-.61-.42-.58-.8l.87-9.96c.02-.24-.07-.47-.24-.63l-7.35-6.62c-.28-.25-.33-.68-.12-.98l5.6-8.14c.13-.19.17-.44.09-.67l-3.18-9.49c-.12-.36.04-.75.38-.91l8.82-4.13c.21-.1.36-.29.4-.53l1.84-9.81c.07-.37.4-.63.77-.59l9.68.98c.23.02.46-.07.61-.25Z"/>
        <path class="cls-7" d="m135.29,308.13l-17.48-11.05c-1.37-.87-1.78-2.69-.92-4.07.87-1.37,2.69-1.78,4.07-.92l11.84,7.49,13.99-29.68c.69-1.47,2.47-2.09,3.92-1.41,1.47.69,2.11,2.45,1.41,3.92l-16.83,35.71Z"/>
      </g>
    </g>
  </g>
</svg>