<?xml version="1.0" encoding="UTF-8"?>
<svg id="Layer_1" data-name="Layer 1" xmlns="http://www.w3.org/2000/svg" viewBox="0 0 400 400">
  <defs>
    <style>
      .cls-1 {
        fill: #0687cb;
        stroke-width: 0px;
      }
    </style>
  </defs>
  <path class="cls-1" d="m84.47,129.56c30.8,13.16,71.83,20.41,115.53,20.41s84.73-7.25,115.53-20.41c28.9-12.35,45.48-28.59,45.48-44.55s-16.58-32.21-45.48-44.55c-30.8-13.16-71.83-20.41-115.53-20.41s-84.73,7.25-115.53,20.41c-28.9,12.35-45.48,28.59-45.48,44.55s16.58,32.21,45.48,44.55Z"/>
  <path class="cls-1" d="m354.67,116.96c-8.69,8.78-21.02,16.62-36.63,23.29-31.59,13.5-73.51,20.93-118.04,20.93s-86.45-7.43-118.04-20.93c-15.61-6.67-27.94-14.51-36.63-23.29-2.41-2.43-4.52-4.93-6.34-7.47v205.51c0,15.97,16.58,32.21,45.48,44.55,30.8,13.16,71.83,20.41,115.53,20.41s84.73-7.25,115.53-20.41c28.9-12.35,45.48-28.59,45.48-44.55V109.49c-1.82,2.55-3.93,5.04-6.34,7.47Z"/>
</svg>