<?xml version="1.0" encoding="UTF-8"?>
<svg id="Layer_1" data-name="Layer 1" xmlns="http://www.w3.org/2000/svg" viewBox="0 0 400 400">
  <defs>
    <style>
      .cls-1 {
        stroke-width: 17.07px;
      }

      .cls-1, .cls-2 {
        fill: #dacee1;
      }

      .cls-1, .cls-2, .cls-3, .cls-4 {
        stroke: #9e79af;
        stroke-linecap: round;
        stroke-miterlimit: 10;
      }

      .cls-2, .cls-3 {
        stroke-width: 17.07px;
      }

      .cls-3, .cls-4 {
        fill: #fff;
      }

      .cls-4 {
        stroke-width: 10.24px;
      }

      .cls-5 {
        fill: #c0e0f1;
        opacity: .5;
      }

      .cls-5, .cls-6 {
        stroke-width: 0px;
      }

      .cls-6 {
        fill: #1b75ba;
      }
    </style>
  </defs>
  <g>
    <g>
      <circle class="cls-1" cx="182.39" cy="119.84" r="98.14"/>
      <path class="cls-2" d="m39.52,362.09c0-79.59,64.52-144.1,144.1-144.1s144.1,64.52,144.1,144.1"/>
      <path class="cls-3" d="m341.95,378.3c-2.93-51.98-16.57-80.6-56.66-119.81-19.87-19.44-18.77,12.12-97.85,12.12-74.68,0-72.32-40.42-99.57-16.67-30.27,26.39-56.27,73.07-56.27,124.36h310.35Z"/>
    </g>
    <line class="cls-4" x1="187.43" y1="270.61" x2="187.43" y2="371.98"/>
  </g>
  <g>
    <path class="cls-6" d="m251.19,289.63l-43.9,57.14h.01c-3.2,4.18-2.42,10.15,1.75,13.35,4.17,3.2,10.14,2.42,13.34-1.75h.01s43.9-57.13,43.9-57.13l-15.11-11.61Z"/>
    <circle class="cls-5" cx="294.13" cy="241.22" r="62.63"/>
    <path class="cls-6" d="m362.17,213.79c-16.2-36.47-58.89-52.89-95.36-36.69-36.47,16.2-52.89,58.89-36.69,95.36,16.2,36.47,58.89,52.89,95.36,36.69,36.47-16.2,52.89-58.89,36.69-95.36Zm-119.26,52.98c-13.06-29.4.18-63.82,29.58-76.88,29.4-13.06,63.82.18,76.88,29.58,13.06,29.4-.18,63.82-29.58,76.88-29.4,13.06-63.82-.18-76.88-29.58Z"/>
  </g>
</svg>