<?xml version="1.0" encoding="UTF-8"?>
<svg id="Layer_1" data-name="Layer 1" xmlns="http://www.w3.org/2000/svg" viewBox="0 0 400 400">
  <defs>
    <style>
      .cls-1 {
        fill: #9f79b0;
        stroke-width: 0px;
      }
    </style>
  </defs>
  <path class="cls-1" d="m27.53,200.06l17.92,7.78c-2.94,14-3.03,28.18-.59,41.79l-18.16,7.25c-2.53,1.01-3.76,3.88-2.75,6.42l12.8,32.06c1.01,2.53,3.88,3.76,6.42,2.75l18.17-7.26c7.45,11.31,17.02,21.34,28.48,29.38l-7.78,17.92c-1.09,2.5.06,5.41,2.56,6.49l31.67,13.74c2.5,1.09,5.41-.06,6.49-2.56l7.78-17.92c14,2.94,28.18,3.03,41.79.59l7.25,18.16c1.01,2.53,3.88,3.76,6.42,2.75l32.06-12.8c2.53-1.01,3.76-3.88,2.75-6.42l-7.26-18.17c11.31-7.45,21.34-17.02,29.38-28.48l17.92,7.78c2.5,1.09,5.41-.06,6.49-2.56l13.74-31.67c1.09-2.5-.06-5.41-2.56-6.49l-17.92-7.78c2.94-14,3.03-28.18.59-41.79l18.16-7.25c2.53-1.01,3.76-3.88,2.75-6.42l-12.8-32.06c-1.01-2.53-3.88-3.76-6.42-2.75l-18.17,7.26c-7.45-11.31-17.02-21.34-28.48-29.38l7.78-17.92c1.09-2.5-.06-5.41-2.56-6.49l-31.67-13.74c-2.5-1.09-5.41.06-6.49,2.56l-7.78,17.92c-14-2.94-28.18-3.03-41.79-.59l-7.25-18.16c-1.01-2.53-3.88-3.76-6.42-2.75l-32.06,12.8c-2.53,1.01-3.76,3.88-2.75,6.42l7.26,18.17c-11.31,7.45-21.34,17.02-29.38,28.48l-17.92-7.78c-2.5-1.09-5.41.06-6.49,2.56l-13.74,31.67c-1.09,2.5.06,5.41,2.56,6.49Zm47.14-3.74c18.78-43.28,69.09-63.13,112.36-44.35,43.28,18.78,63.13,69.09,44.35,112.36-18.78,43.28-69.09,63.13-112.36,44.35-43.28-18.78-63.13-69.09-44.35-112.36Z"/>
  <g>
    <rect class="cls-1" x="298.47" y="95.57" width="22.6" height="22.6" transform="translate(619.54 213.74) rotate(-180)"/>
    <path class="cls-1" d="m244.94,102.39l9.55,2.35c-.28,7.2.86,14.24,3.22,20.79l-8.41,5.13c-1.17.71-1.54,2.24-.83,3.42l9.05,14.84c.71,1.17,2.24,1.54,3.42.83l8.41-5.13c4.65,4.99,10.24,9.16,16.61,12.19l-2.35,9.55c-.33,1.33.49,2.68,1.82,3.01l16.87,4.16c1.33.33,2.68-.49,3.01-1.82l2.35-9.55c7.2.28,14.24-.86,20.79-3.22l5.13,8.41c.71,1.17,2.24,1.54,3.42.83l14.84-9.05c1.17-.71,1.54-2.24.83-3.42l-5.13-8.41c4.99-4.65,9.16-10.24,12.19-16.61l9.55,2.35c1.33.33,2.68-.49,3.01-1.82l4.16-16.87c.33-1.33-.49-2.68-1.82-3.01l-9.55-2.35c.28-7.2-.86-14.24-3.22-20.79l8.41-5.13c1.17-.71,1.54-2.24.83-3.42l-9.05-14.84c-.71-1.17-2.24-1.54-3.42-.83l-8.41,5.13c-4.65-4.99-10.24-9.16-16.61-12.19l2.35-9.55c.33-1.33-.49-2.68-1.82-3.01l-16.87-4.16c-1.33-.33-2.68.49-3.01,1.82l-2.35,9.55c-7.2-.28-14.24.86-20.79,3.22l-5.13-8.41c-.71-1.17-2.24-1.54-3.42-.83l-14.84,9.05c-1.17.71-1.54,2.24-.83,3.42l5.13,8.41c-4.99,4.65-9.16,10.24-12.19,16.61l-9.55-2.35c-1.33-.33-2.68.49-3.01,1.82l-4.16,16.87c-.33,1.33.49,2.68,1.82,3.01Zm23.09-5.82c5.69-23.06,28.99-37.14,52.05-31.46,23.06,5.69,37.14,28.99,31.46,52.05-5.69,23.06-28.99,37.14-52.05,31.46-23.06-5.69-37.14-28.99-31.46-52.05Z"/>
  </g>
  <circle class="cls-1" cx="153.03" cy="230.33" r="43.73"/>
</svg>