<svg xmlns="http://www.w3.org/2000/svg" xmlns:xlink="http://www.w3.org/1999/xlink" xmlns:lucid="lucid" width="831.5" height="214.65"><g transform="translate(0 0)" lucid:page-tab-id="0_0"><path d="M280 126.25c0 6.63-30.43 12-67.97 12s-67.97-5.37-67.97-12v-96c0-6.63 30.43-12 67.97-12s67.97 5.37 67.97 12z" stroke="#000" stroke-width="2" fill="#dfeef7"/><path d="M280 30.25c0 6.63-30.43 12-67.97 12s-67.97-5.37-67.97-12" stroke="#000" stroke-width="2" fill="none"/><use xlink:href="#a" transform="matrix(1,0,0,1,149.0625,47.25) translate(41.848765432098766 28.569444444444446)"/><use xlink:href="#b" transform="matrix(1,0,0,1,149.0625,47.25) translate(22.49074074074074 47.236111111111114)"/><use xlink:href="#c" transform="matrix(1,0,0,1,149.0625,47.25) translate(38.41358024691358 65.90277777777779)"/><path d="M338.27 45.05c0-8.28 6.72-15 15-15h90c8.3 0 15 6.72 15 15v66.4c0 8.28-6.7 15-15 15h-90c-8.28 0-15-6.72-15-15z" stroke="#000" stroke-width="2" fill="#c1e4f7"/><use xlink:href="#d" transform="matrix(1,0,0,1,343.27263779527556,35.04999999999999) translate(15.333333333333336 20.600694444444446)"/><use xlink:href="#e" transform="matrix(1,0,0,1,343.27263779527556,35.04999999999999) translate(7.706790123456784 39.267361111111114)"/><use xlink:href="#f" transform="matrix(1,0,0,1,343.27263779527556,35.04999999999999) translate(56.53395061728394 39.267361111111114)"/><use xlink:href="#g" transform="matrix(1,0,0,1,343.27263779527556,35.04999999999999) translate(30.41358024691358 57.934027777777786)"/><use xlink:href="#h" transform="matrix(1,0,0,1,343.27263779527556,35.04999999999999) translate(27.296296296296298 74.82291666666669)"/><path d="M513.6 45.05c0-8.28 6.7-15 15-15h90c8.27 0 15 6.72 15 15v66.4c0 8.28-6.73 15-15 15h-90c-8.3 0-15-6.72-15-15z" stroke="#000" stroke-width="2" fill="#ffeca9"/><use xlink:href="#i" transform="matrix(1,0,0,1,518.5851377952756,35.04999999999999) translate(29.98148148148148 36.91319444444444)"/><use xlink:href="#j" transform="matrix(1,0,0,1,518.5851377952756,35.04999999999999) translate(30.41358024691358 55.579861111111114)"/><path d="M688.9 45.05c0-8.28 6.7-15 15-15h100c8.28 0 15 6.72 15 15v66.4c0 8.28-6.72 15-15 15h-100c-8.3 0-15-6.72-15-15z" stroke="#000" stroke-width="2" fill="#d1bcd2"/><use xlink:href="#a" transform="matrix(1,0,0,1,693.8976377952756,35.04999999999999) translate(38.848765432098766 28.756944444444446)"/><use xlink:href="#k" transform="matrix(1,0,0,1,693.8976377952756,35.04999999999999) translate(6.117283950617285 47.423611111111114)"/><use xlink:href="#c" transform="matrix(1,0,0,1,693.8976377952756,35.04999999999999) translate(35.41358024691358 66.09027777777779)"/><path d="M90.63 78.25h33.92" stroke="#000" stroke-width="2" fill="none"/><path d="M90.65 79.25h-1.02v-2h1.02z"/><path d="M139.83 78.25l-14.27 4.64v-9.3z" stroke="#000" stroke-width="2"/><path d="M282 78.25h36.77" stroke="#000" stroke-width="2" fill="none"/><path d="M282.03 79.25H281v-2h1.03z"/><path d="M334.04 78.25l-14.27 4.64v-9.3z" stroke="#000" stroke-width="2"/><path d="M460.27 78.25h33.8" stroke="#000" stroke-width="2" fill="none"/><path d="M460.3 79.25h-1.03v-2h1.03z"/><path d="M509.35 78.25l-14.27 4.64v-9.3z" stroke="#000" stroke-width="2"/><path d="M635.6 78.25h33.8" stroke="#c92d39" stroke-width="2" fill="none"/><path d="M635.6 79.25h-1v-2h1z" fill="#c92d39"/><path d="M684.66 78.25L670.4 82.9v-9.3z" stroke="#c92d39" stroke-width="2" fill="#c92d39"/><path d="M0 99.85h144.06v74.8H0z" stroke="#000" stroke-opacity="0" stroke-width="2" fill="#fff" fill-opacity="0"/><use xlink:href="#l" transform="matrix(1,0,0,1,5,104.85) translate(17.873456790123456 26.663194444444446)"/><use xlink:href="#m" transform="matrix(1,0,0,1,5,104.85) translate(64.49691358024691 26.663194444444446)"/><use xlink:href="#n" transform="matrix(1,0,0,1,5,104.85) translate(56.28703703703704 45.329861111111114)"/><path d="M118.03 78.25c0 5.52-4.48 10-10 10s-10-4.48-10-10 4.48-10 10-10 10 4.48 10 10z" stroke="#000" stroke-width="2"/><use xlink:href="#o" transform="matrix(1,0,0,1,98.03125,68.25) translate(5.203703703703703 14.666666666666668)"/><path d="M310.03 78.25c0 5.52-4.48 10-10 10s-10-4.48-10-10 4.48-10 10-10 10 4.48 10 10z" stroke="#000" stroke-width="2"/><use xlink:href="#o" transform="matrix(1,0,0,1,290.03125,68.25000000000001) translate(5.203703703703703 14.666666666666668)"/><path d="M486.5 78.25c0 5.52-4.46 10-10 10-5.5 0-10-4.48-10-10s4.5-10 10-10c5.54 0 10 4.48 10 10z" stroke="#000" stroke-width="2"/><use xlink:href="#o" transform="matrix(1,0,0,1,466.5140255905511,68.25000000000001) translate(5.203703703703703 14.666666666666668)"/><path d="M662 78.25c0 5.52-4.48 10-10 10s-10-4.48-10-10 4.48-10 10-10 10 4.48 10 10z" stroke="#c92d39" stroke-width="2" fill="#c92d39"/><use xlink:href="#p" transform="matrix(1,0,0,1,642,68.25000000000001) translate(5.555555555555555 14.666666666666668)"/><path d="M628 29.25h64.5v40H628z" stroke="#000" stroke-opacity="0" stroke-width="2" fill="#fff" fill-opacity="0"/><use xlink:href="#q" transform="matrix(1,0,0,1,633,34.25) translate(8.07098765432099 10.76388888888889)"/><use xlink:href="#r" transform="matrix(1,0,0,1,633,34.25) translate(5.277777777777779 24.09722222222222)"/><use xlink:href="#s" transform="matrix(1,0,0,1,633,34.25) translate(26.265432098765434 24.09722222222222)"/><path d="M263.5 104.55L276 116.6l-12.5 12.05L251 116.6z" stroke="#000" stroke-opacity="0" stroke-width="2" fill="#c92d39"/><use xlink:href="#t" transform="matrix(1,0,0,1,251,104.55187007875645) translate(6.0249999999999995 17.799999999999997)"/><path d="M442.5 96.85L455 108.9l-12.5 12.05L430 108.9z" stroke="#000" stroke-opacity="0" stroke-width="2" fill="#c92d39"/><use xlink:href="#t" transform="matrix(1,0,0,1,430,96.85) translate(6.0249999999999995 17.799999999999997)"/><path d="M617.1 98.35l12.5 12.05-12.5 12.05-12.5-12.05z" stroke="#000" stroke-opacity="0" stroke-width="2" fill="#c92d39"/><use xlink:href="#t" transform="matrix(1,0,0,1,604.5851377952756,98.3500000000233) translate(6.0249999999999995 17.799999999999997)"/><path d="M802.4 97.85l12.5 12.05-12.5 12.05-12.5-12.05z" stroke="#000" stroke-opacity="0" stroke-width="2" fill="#c92d39"/><use xlink:href="#t" transform="matrix(1,0,0,1,789.8976377952756,97.85) translate(6.0249999999999995 17.799999999999997)"/><path d="M153.13 180l13.14 12.05-13.14 12.05L140 192.05z" stroke="#000" stroke-opacity="0" stroke-width="2" fill="#c92d39"/><use xlink:href="#t" transform="matrix(1,0,0,1,140,180) translate(7.0249999999999995 17.799999999999997)"/><path d="M166.27 172.65h294.2v42h-294.2z" stroke="#000" stroke-opacity="0" stroke-width="2" fill="#fff" fill-opacity="0"/><g><use xlink:href="#u" transform="matrix(1,0,0,1,171.2679303278689,177.64999999999998) translate(0 18.666666666666668)"/><use xlink:href="#v" transform="matrix(1,0,0,1,171.2679303278689,177.64999999999998) translate(11.481481481481483 18.666666666666668)"/><use xlink:href="#w" transform="matrix(1,0,0,1,171.2679303278689,177.64999999999998) translate(72.1111111111111 18.666666666666668)"/><use xlink:href="#x" transform="matrix(1,0,0,1,171.2679303278689,177.64999999999998) translate(117.96296296296296 18.666666666666668)"/><use xlink:href="#y" transform="matrix(1,0,0,1,171.2679303278689,177.64999999999998) translate(145.2962962962963 18.666666666666668)"/><use xlink:href="#z" transform="matrix(1,0,0,1,171.2679303278689,177.64999999999998) translate(195.62962962962965 18.666666666666668)"/><use xlink:href="#A" transform="matrix(1,0,0,1,171.2679303278689,177.64999999999998) translate(220.81481481481484 18.666666666666668)"/></g><path d="M91.72 99.27h-2.1V56.5c0-1.24-1.13-2.25-2.56-2.25H51.44c-1.43 0-2.57 1-2.57 2.26v42.77h-2.1c-.7 0-1.27.48-1.27 1.1v1.88H93v-1.87c0-.63-.57-1.1-1.28-1.1zM59.1 61.35c-.02-.62.55-1.1 1.27-1.1h4.23c.7 0 1.28.48 1.28 1.1v3.8c0 .62-.57 1.1-1.28 1.1h-4.23c-.7 0-1.28-.48-1.28-1.1l-.02-3.8zm-.02 9.03c0-.63.58-1.1 1.3-1.1h4.2c.73 0 1.3.47 1.3 1.1v3.74c0 .63-.57 1.15-1.28 1.15h-4.23c-.7 0-1.28-.52-1.28-1.15l-.02-3.74zm5.52 13.87h-4.23c-.7 0-1.28-.48-1.28-1.1l-.02-3.8c0-.62.58-1.1 1.3-1.1h4.2c.73 0 1.3.48 1.3 1.1v3.8c0 .62-.57 1.1-1.28 1.1zm8.02 15.02h-6.74v-7.92c0-.62.57-1.1 1.23-1.1h4.3c.65 0 1.22.48 1.22 1.1v7.92zm6.8-16.12c0 .62-.58 1.1-1.3 1.1H73.9c-.7 0-1.28-.48-1.28-1.1v-3.8c0-.62.57-1.1 1.28-1.1h4.23c.72 0 1.28.48 1.28 1.1v3.8zm0-9.03c0 .63-.58 1.15-1.3 1.15H73.9c-.7 0-1.28-.52-1.28-1.15v-3.74c0-.63.57-1.1 1.28-1.1h4.23c.72 0 1.28.47 1.28 1.1v3.74zm0-8.97c0 .62-.58 1.1-1.3 1.1H73.9c-.7 0-1.28-.48-1.28-1.1v-3.8c0-.62.57-1.1 1.28-1.1h4.23c.72 0 1.28.48 1.28 1.1v3.8zM31.25 64.58c4.5 0 8.15-3.95 8.15-8.83s-3.65-8.83-8.15-8.83-8.15 3.95-8.15 8.83 3.65 8.83 8.15 8.83zm5.7 2.23H35.9c-1.43.68-3 1.1-4.65 1.1-1.65 0-3.22-.42-4.65-1.1h-1.05c-4.73 0-8.55 4.14-8.55 9.27v2.86c0 1.84 1.37 3.32 3.05 3.32h22.4c1.68 0 3.05-1.48 3.05-3.32v-2.86c0-5.13-3.82-9.26-8.55-9.26z" stroke="#000" stroke-opacity="0" stroke-width=".29"/><path d="M514 159.6c0 5.52-4.48 10-10 10s-10-4.48-10-10 4.48-10 10-10 10 4.48 10 10z" stroke="#000" stroke-width="2"/><g><use xlink:href="#o" transform="matrix(1,0,0,1,494,149.60009842520387) translate(5.203703703703703 14.666666666666668)"/></g><path d="M514 140.17h316.5v42H514z" stroke="#000" stroke-opacity="0" stroke-width="2" fill="#fff" fill-opacity="0"/><g><use xlink:href="#u" transform="matrix(1,0,0,1,519,145.1732283464567) translate(0 18.666666666666668)"/><use xlink:href="#B" transform="matrix(1,0,0,1,519,145.1732283464567) translate(11.481481481481483 18.666666666666668)"/><use xlink:href="#C" transform="matrix(1,0,0,1,519,145.1732283464567) translate(82.51851851851853 18.666666666666668)"/><use xlink:href="#D" transform="matrix(1,0,0,1,519,145.1732283464567) translate(127.62962962962965 18.666666666666668)"/><use xlink:href="#E" transform="matrix(1,0,0,1,519,145.1732283464567) translate(188.25925925925927 18.666666666666668)"/><use xlink:href="#F" transform="matrix(1,0,0,1,519,145.1732283464567) translate(244.4814814814815 18.666666666666668)"/></g><path d="M514 192.17c0 5.53-4.48 10-10 10s-10-4.47-10-10c0-5.52 4.48-10 10-10s10 4.48 10 10z" stroke="#c92d39" stroke-width="2" fill="#c92d39"/><g><use xlink:href="#p" transform="matrix(1,0,0,1,494,182.1732283464567) translate(5.555555555555555 14.666666666666668)"/></g><path d="M514 172.17h316.5v42H514z" stroke="#000" stroke-opacity="0" stroke-width="2" fill="#fff" fill-opacity="0"/><g><use xlink:href="#u" transform="matrix(1,0,0,1,519,177.1732283464567) translate(0 18.666666666666668)"/><use xlink:href="#G" transform="matrix(1,0,0,1,519,177.1732283464567) translate(11.481481481481483 18.666666666666668)"/><use xlink:href="#y" transform="matrix(1,0,0,1,519,177.1732283464567) translate(67.70370370370371 18.666666666666668)"/><use xlink:href="#z" transform="matrix(1,0,0,1,519,177.1732283464567) translate(118.03703703703704 18.666666666666668)"/><use xlink:href="#C" transform="matrix(1,0,0,1,519,177.1732283464567) translate(143.22222222222223 18.666666666666668)"/><use xlink:href="#E" transform="matrix(1,0,0,1,519,177.1732283464567) translate(188.33333333333334 18.666666666666668)"/><use xlink:href="#F" transform="matrix(1,0,0,1,519,177.1732283464567) translate(244.55555555555557 18.666666666666668)"/></g><defs><path d="M67-125c0 53 21 87 73 88 37 1 54-22 65-47l45 17C233-25 199 4 140 4 58 4 20-42 15-125 8-235 124-281 211-232c18 10 29 29 36 50l-46 12c-8-25-30-41-62-41-52 0-71 34-72 86" id="H"/><path d="M25 0v-261h50V0H25" id="I"/><path d="M133-34C117-15 103 5 69 4 32 3 11-16 11-54c-1-60 55-63 116-61 1-26-3-47-28-47-18 1-26 9-28 27l-52-2c7-38 36-58 82-57s74 22 75 68l1 82c-1 14 12 18 25 15v27c-30 8-71 5-69-32zm-48 3c29 0 43-24 42-57-32 0-66-3-65 30 0 17 8 27 23 27" id="J"/><path d="M25-224v-37h50v37H25zM25 0v-190h50V0H25" id="K"/><path d="M220-157c-53 9-28 100-34 157h-49v-107c1-27-5-49-29-50C55-147 81-57 75 0H25l-1-190h47c2 12-1 28 3 38 10-53 101-56 108 0 13-22 24-43 59-42 82 1 51 116 57 194h-49v-107c-1-25-5-48-29-50" id="L"/><g id="a"><use transform="matrix(0.04320987654320988,0,0,0.04320987654320988,0,0)" xlink:href="#H"/><use transform="matrix(0.04320987654320988,0,0,0.04320987654320988,11.19135802469136,0)" xlink:href="#I"/><use transform="matrix(0.04320987654320988,0,0,0.04320987654320988,15.512345679012347,0)" xlink:href="#J"/><use transform="matrix(0.04320987654320988,0,0,0.04320987654320988,24.154320987654323,0)" xlink:href="#K"/><use transform="matrix(0.04320987654320988,0,0,0.04320987654320988,28.47530864197531,0)" xlink:href="#L"/></g><path d="M240-174c0 40-23 61-54 70L253 0h-59l-57-94H76V0H24v-248c93 4 217-23 216 74zM76-134c48-2 112 12 112-38 0-48-66-32-112-35v73" id="M"/><path d="M185-48c-13 30-37 53-82 52C43 2 14-33 14-96s30-98 90-98c62 0 83 45 84 108H66c0 31 8 55 39 56 18 0 30-7 34-22zm-45-69c5-46-57-63-70-21-2 6-4 13-4 21h74" id="N"/><path d="M135-194c53 0 70 44 70 98 0 56-19 98-73 100-31 1-45-17-59-34 3 33 2 69 2 105H25l-1-265h48c2 10 0 23 3 31 11-24 29-35 60-35zM114-30c33 0 39-31 40-66 0-38-9-64-40-64-56 0-55 130 0 130" id="O"/><path d="M110-194c64 0 96 36 96 99 0 64-35 99-97 99-61 0-95-36-95-99 0-62 34-99 96-99zm-1 164c35 0 45-28 45-65 0-40-10-65-43-65-34 0-45 26-45 65 0 36 10 65 43 65" id="P"/><path d="M137-138c1-29-70-34-71-4 15 46 118 7 119 86 1 83-164 76-172 9l43-7c4 19 20 25 44 25 33 8 57-30 24-41C81-84 22-81 20-136c-2-80 154-74 161-7" id="Q"/><path d="M115-3C79 11 28 4 28-45v-112H4v-33h27l15-45h31v45h36v33H77v99c-1 23 16 31 38 25v30" id="R"/><path d="M135-150c-39-12-60 13-60 57V0H25l-1-190h47c2 13-1 29 3 40 6-28 27-53 61-41v41" id="S"/><path d="M123 10C108 53 80 86 19 72V37c35 8 53-11 59-39L3-190h52l48 148c12-52 28-100 44-148h51" id="T"/><g id="b"><use transform="matrix(0.04320987654320988,0,0,0.04320987654320988,0,0)" xlink:href="#M"/><use transform="matrix(0.04320987654320988,0,0,0.04320987654320988,11.19135802469136,0)" xlink:href="#N"/><use transform="matrix(0.04320987654320988,0,0,0.04320987654320988,19.833333333333336,0)" xlink:href="#O"/><use transform="matrix(0.04320987654320988,0,0,0.04320987654320988,29.296296296296298,0)" xlink:href="#P"/><use transform="matrix(0.04320987654320988,0,0,0.04320987654320988,38.75925925925926,0)" xlink:href="#Q"/><use transform="matrix(0.04320987654320988,0,0,0.04320987654320988,47.40123456790123,0)" xlink:href="#K"/><use transform="matrix(0.04320987654320988,0,0,0.04320987654320988,51.722222222222214,0)" xlink:href="#R"/><use transform="matrix(0.04320987654320988,0,0,0.04320987654320988,56.864197530864196,0)" xlink:href="#P"/><use transform="matrix(0.04320987654320988,0,0,0.04320987654320988,66.32716049382717,0)" xlink:href="#S"/><use transform="matrix(0.04320987654320988,0,0,0.04320987654320988,72.37654320987654,0)" xlink:href="#T"/></g><path d="M135-143c-3-34-86-38-87 0 15 53 115 12 119 90S17 21 10-45l28-5c4 36 97 45 98 0-10-56-113-15-118-90-4-57 82-63 122-42 12 7 21 19 24 35" id="U"/><path d="M100-194c63 0 86 42 84 106H49c0 40 14 67 53 68 26 1 43-12 49-29l28 8c-11 28-37 45-77 45C44 4 14-33 15-96c1-61 26-98 85-98zm52 81c6-60-76-77-97-28-3 7-6 17-6 28h103" id="V"/><path d="M114-163C36-179 61-72 57 0H25l-1-190h30c1 12-1 29 2 39 6-27 23-49 58-41v29" id="W"/><path d="M108 0H70L1-190h34L89-25l56-165h34" id="X"/><path d="M24-231v-30h32v30H24zM24 0v-190h32V0H24" id="Y"/><path d="M96-169c-40 0-48 33-48 73s9 75 48 75c24 0 41-14 43-38l32 2c-6 37-31 61-74 61-59 0-76-41-82-99-10-93 101-131 147-64 4 7 5 14 7 22l-32 3c-4-21-16-35-41-35" id="Z"/><g id="c"><use transform="matrix(0.04320987654320988,0,0,0.04320987654320988,0,0)" xlink:href="#U"/><use transform="matrix(0.04320987654320988,0,0,0.04320987654320988,7.777777777777779,0)" xlink:href="#V"/><use transform="matrix(0.04320987654320988,0,0,0.04320987654320988,16.419753086419753,0)" xlink:href="#W"/><use transform="matrix(0.04320987654320988,0,0,0.04320987654320988,21.561728395061728,0)" xlink:href="#X"/><use transform="matrix(0.04320987654320988,0,0,0.04320987654320988,29.339506172839503,0)" xlink:href="#Y"/><use transform="matrix(0.04320987654320988,0,0,0.04320987654320988,32.75308641975309,0)" xlink:href="#Z"/><use transform="matrix(0.04320987654320988,0,0,0.04320987654320988,40.53086419753087,0)" xlink:href="#V"/></g><path d="M24 0v-248h195v40H76v63h132v40H76v65h150V0H24" id="aa"/><path d="M135-194c52 0 70 43 70 98 0 56-19 99-73 100-30 1-46-15-58-35L72 0H24l1-261h50v104c11-23 29-37 60-37zM114-30c31 0 40-27 40-66 0-37-7-63-39-63s-41 28-41 65c0 36 8 64 40 64" id="ab"/><path d="M88-194c31-1 46 15 58 34l-1-101h50l1 261h-48c-2-10 0-23-3-31C134-8 116 4 84 4 32 4 16-41 15-95c0-56 19-97 73-99zm17 164c33 0 40-30 41-66 1-37-9-64-41-64s-38 30-39 65c0 43 13 65 39 65" id="ac"/><g id="d"><use transform="matrix(0.04320987654320988,0,0,0.04320987654320988,0,0)" xlink:href="#aa"/><use transform="matrix(0.04320987654320988,0,0,0.04320987654320988,10.370370370370372,0)" xlink:href="#L"/><use transform="matrix(0.04320987654320988,0,0,0.04320987654320988,24.19753086419753,0)" xlink:href="#ab"/><use transform="matrix(0.04320987654320988,0,0,0.04320987654320988,33.660493827160494,0)" xlink:href="#N"/><use transform="matrix(0.04320987654320988,0,0,0.04320987654320988,42.30246913580247,0)" xlink:href="#ac"/><use transform="matrix(0.04320987654320988,0,0,0.04320987654320988,51.76543209876543,0)" xlink:href="#ac"/><use transform="matrix(0.04320987654320988,0,0,0.04320987654320988,61.22839506172839,0)" xlink:href="#N"/><use transform="matrix(0.04320987654320988,0,0,0.04320987654320988,69.87037037037037,0)" xlink:href="#ac"/></g><path d="M136-208V0H84v-208H4v-40h212v40h-80" id="ad"/><path d="M147 0L96-86 75-71V0H25v-261h50v150l67-79h53l-66 74L201 0h-54" id="ae"/><path d="M135-194c87-1 58 113 63 194h-50c-7-57 23-157-34-157-59 0-34 97-39 157H25l-1-190h47c2 12-1 28 3 38 12-26 28-41 61-42" id="af"/><g id="e"><use transform="matrix(0.04320987654320988,0,0,0.04320987654320988,0,0)" xlink:href="#ad"/><use transform="matrix(0.04320987654320988,0,0,0.04320987654320988,8.296296296296298,0)" xlink:href="#P"/><use transform="matrix(0.04320987654320988,0,0,0.04320987654320988,17.75925925925926,0)" xlink:href="#ae"/><use transform="matrix(0.04320987654320988,0,0,0.04320987654320988,26.401234567901234,0)" xlink:href="#N"/><use transform="matrix(0.04320987654320988,0,0,0.04320987654320988,35.04320987654321,0)" xlink:href="#af"/></g><path d="M24 0v-248h52V0H24" id="ag"/><path d="M85 4C-2 5 27-109 22-190h50c7 57-23 150 33 157 60-5 35-97 40-157h50l1 190h-47c-2-12 1-28-3-38-12 25-28 42-61 42" id="ah"/><g id="f"><use transform="matrix(0.04320987654320988,0,0,0.04320987654320988,0,0)" xlink:href="#ag"/><use transform="matrix(0.04320987654320988,0,0,0.04320987654320988,4.320987654320988,0)" xlink:href="#Q"/><use transform="matrix(0.04320987654320988,0,0,0.04320987654320988,12.962962962962964,0)" xlink:href="#Q"/><use transform="matrix(0.04320987654320988,0,0,0.04320987654320988,21.604938271604944,0)" xlink:href="#ah"/><use transform="matrix(0.04320987654320988,0,0,0.04320987654320988,31.067901234567906,0)" xlink:href="#N"/><use transform="matrix(0.04320987654320988,0,0,0.04320987654320988,39.70987654320988,0)" xlink:href="#S"/></g><g id="g"><use transform="matrix(0.04320987654320988,0,0,0.04320987654320988,0,0)" xlink:href="#U"/><use transform="matrix(0.04320987654320988,0,0,0.04320987654320988,7.777777777777779,0)" xlink:href="#V"/><use transform="matrix(0.04320987654320988,0,0,0.04320987654320988,16.419753086419753,0)" xlink:href="#W"/><use transform="matrix(0.04320987654320988,0,0,0.04320987654320988,21.561728395061728,0)" xlink:href="#X"/><use transform="matrix(0.04320987654320988,0,0,0.04320987654320988,29.339506172839503,0)" xlink:href="#Y"/><use transform="matrix(0.04320987654320988,0,0,0.04320987654320988,32.75308641975309,0)" xlink:href="#Z"/><use transform="matrix(0.04320987654320988,0,0,0.04320987654320988,40.53086419753087,0)" xlink:href="#V"/></g><path d="M87 75C49 33 22-17 22-94c0-76 28-126 65-167h31c-38 41-64 92-64 168S80 34 118 75H87" id="ai"/><path d="M100-194c62-1 85 37 85 99 1 63-27 99-86 99S16-35 15-95c0-66 28-99 85-99zM99-20c44 1 53-31 53-75 0-43-8-75-51-75s-53 32-53 75 10 74 51 75" id="aj"/><path d="M115-194c55 1 70 41 70 98S169 2 115 4C84 4 66-9 55-30l1 105H24l-1-265h31l2 30c10-21 28-34 59-34zm-8 174c40 0 45-34 45-75s-6-73-45-74c-42 0-51 32-51 76 0 43 10 73 51 73" id="ak"/><path d="M59-47c-2 24 18 29 38 22v24C64 9 27 4 27-40v-127H5v-23h24l9-43h21v43h35v23H59v120" id="al"/><path d="M117-194c89-4 53 116 60 194h-32v-121c0-31-8-49-39-48C34-167 62-67 57 0H25l-1-190h30c1 10-1 24 2 32 11-22 29-35 61-36" id="am"/><path d="M141-36C126-15 110 5 73 4 37 3 15-17 15-53c-1-64 63-63 125-63 3-35-9-54-41-54-24 1-41 7-42 31l-33-3c5-37 33-52 76-52 45 0 72 20 72 64v82c-1 20 7 32 28 27v20c-31 9-61-2-59-35zM48-53c0 20 12 33 32 33 41-3 63-29 60-74-43 2-92-5-92 41" id="an"/><path d="M24 0v-261h32V0H24" id="ao"/><path d="M33-261c38 41 65 92 65 168S71 34 33 75H2C39 34 66-17 66-93S39-220 2-261h31" id="ap"/><g id="h"><use transform="matrix(0.03703703703703704,0,0,0.03703703703703704,0,0)" xlink:href="#ai"/><use transform="matrix(0.03703703703703704,0,0,0.03703703703703704,4.407407407407408,0)" xlink:href="#aj"/><use transform="matrix(0.03703703703703704,0,0,0.03703703703703704,11.814814814814817,0)" xlink:href="#ak"/><use transform="matrix(0.03703703703703704,0,0,0.03703703703703704,19.222222222222225,0)" xlink:href="#al"/><use transform="matrix(0.03703703703703704,0,0,0.03703703703703704,22.925925925925927,0)" xlink:href="#Y"/><use transform="matrix(0.03703703703703704,0,0,0.03703703703703704,25.85185185185186,0)" xlink:href="#aj"/><use transform="matrix(0.03703703703703704,0,0,0.03703703703703704,33.25925925925927,0)" xlink:href="#am"/><use transform="matrix(0.03703703703703704,0,0,0.03703703703703704,40.66666666666667,0)" xlink:href="#an"/><use transform="matrix(0.03703703703703704,0,0,0.03703703703703704,48.07407407407407,0)" xlink:href="#ao"/><use transform="matrix(0.03703703703703704,0,0,0.03703703703703704,51,0)" xlink:href="#ap"/></g><path d="M182-130c37 4 62 22 62 59C244 23 116-4 24 0v-248c84 5 203-23 205 63 0 31-19 50-47 55zM76-148c40-3 101 13 101-30 0-44-60-28-101-31v61zm0 110c48-3 116 14 116-37 0-48-69-32-116-35v72" id="aq"/><g id="i"><use transform="matrix(0.04320987654320988,0,0,0.04320987654320988,0,0)" xlink:href="#aq"/><use transform="matrix(0.04320987654320988,0,0,0.04320987654320988,11.19135802469136,0)" xlink:href="#S"/><use transform="matrix(0.04320987654320988,0,0,0.04320987654320988,17.24074074074074,0)" xlink:href="#P"/><use transform="matrix(0.04320987654320988,0,0,0.04320987654320988,26.703703703703702,0)" xlink:href="#ae"/><use transform="matrix(0.04320987654320988,0,0,0.04320987654320988,35.34567901234568,0)" xlink:href="#N"/><use transform="matrix(0.04320987654320988,0,0,0.04320987654320988,43.98765432098765,0)" xlink:href="#S"/></g><g id="j"><use transform="matrix(0.04320987654320988,0,0,0.04320987654320988,0,0)" xlink:href="#U"/><use transform="matrix(0.04320987654320988,0,0,0.04320987654320988,7.777777777777779,0)" xlink:href="#V"/><use transform="matrix(0.04320987654320988,0,0,0.04320987654320988,16.419753086419753,0)" xlink:href="#W"/><use transform="matrix(0.04320987654320988,0,0,0.04320987654320988,21.561728395061728,0)" xlink:href="#X"/><use transform="matrix(0.04320987654320988,0,0,0.04320987654320988,29.339506172839503,0)" xlink:href="#Y"/><use transform="matrix(0.04320987654320988,0,0,0.04320987654320988,32.75308641975309,0)" xlink:href="#Z"/><use transform="matrix(0.04320987654320988,0,0,0.04320987654320988,40.53086419753087,0)" xlink:href="#V"/></g><path d="M195-6C206 82 75 100 31 46c-4-6-6-13-8-21l49-6c3 16 16 24 34 25 40 0 42-37 40-79-11 22-30 35-61 35-53 0-70-43-70-97 0-56 18-96 73-97 30 0 46 14 59 34l2-30h47zm-90-29c32 0 41-27 41-63 0-35-9-62-40-62-32 0-39 29-40 63 0 36 9 62 39 62" id="ar"/><path d="M114-157C55-157 80-60 75 0H25v-261h50l-1 109c12-26 28-41 61-42 86-1 58 113 63 194h-50c-7-57 23-157-34-157" id="as"/><g id="k"><use transform="matrix(0.04320987654320988,0,0,0.04320987654320988,0,0)" xlink:href="#H"/><use transform="matrix(0.04320987654320988,0,0,0.04320987654320988,11.19135802469136,0)" xlink:href="#I"/><use transform="matrix(0.04320987654320988,0,0,0.04320987654320988,15.512345679012347,0)" xlink:href="#N"/><use transform="matrix(0.04320987654320988,0,0,0.04320987654320988,24.154320987654323,0)" xlink:href="#J"/><use transform="matrix(0.04320987654320988,0,0,0.04320987654320988,32.7962962962963,0)" xlink:href="#S"/><use transform="matrix(0.04320987654320988,0,0,0.04320987654320988,38.845679012345684,0)" xlink:href="#K"/><use transform="matrix(0.04320987654320988,0,0,0.04320987654320988,43.16666666666667,0)" xlink:href="#af"/><use transform="matrix(0.04320987654320988,0,0,0.04320987654320988,52.62962962962963,0)" xlink:href="#ar"/><use transform="matrix(0.04320987654320988,0,0,0.04320987654320988,62.0925925925926,0)" xlink:href="#as"/><use transform="matrix(0.04320987654320988,0,0,0.04320987654320988,71.55555555555556,0)" xlink:href="#P"/><use transform="matrix(0.04320987654320988,0,0,0.04320987654320988,81.01851851851852,0)" xlink:href="#ah"/><use transform="matrix(0.04320987654320988,0,0,0.04320987654320988,90.48148148148147,0)" xlink:href="#Q"/><use transform="matrix(0.04320987654320988,0,0,0.04320987654320988,99.12345679012344,0)" xlink:href="#N"/></g><g id="l"><use transform="matrix(0.04320987654320988,0,0,0.04320987654320988,0,0)" xlink:href="#H"/><use transform="matrix(0.04320987654320988,0,0,0.04320987654320988,11.19135802469136,0)" xlink:href="#I"/><use transform="matrix(0.04320987654320988,0,0,0.04320987654320988,15.512345679012347,0)" xlink:href="#J"/><use transform="matrix(0.04320987654320988,0,0,0.04320987654320988,24.154320987654323,0)" xlink:href="#K"/><use transform="matrix(0.04320987654320988,0,0,0.04320987654320988,28.47530864197531,0)" xlink:href="#L"/></g><path d="M169-182c-1-43-94-46-97-3 18 66 151 10 154 114 3 95-165 93-204 36-6-8-10-19-12-30l50-8c3 46 112 56 116 5-17-69-150-10-154-114-4-87 153-88 188-35 5 8 8 18 10 28" id="at"/><path d="M190-63c-7 42-38 67-86 67-59 0-84-38-90-98-12-110 154-137 174-36l-49 2c-2-19-15-32-35-32-30 0-35 28-38 64-6 74 65 87 74 30" id="au"/><g id="m"><use transform="matrix(0.04320987654320988,0,0,0.04320987654320988,0,0)" xlink:href="#at"/><use transform="matrix(0.04320987654320988,0,0,0.04320987654320988,10.370370370370372,0)" xlink:href="#P"/><use transform="matrix(0.04320987654320988,0,0,0.04320987654320988,19.833333333333336,0)" xlink:href="#ah"/><use transform="matrix(0.04320987654320988,0,0,0.04320987654320988,29.296296296296298,0)" xlink:href="#S"/><use transform="matrix(0.04320987654320988,0,0,0.04320987654320988,35.345679012345684,0)" xlink:href="#au"/><use transform="matrix(0.04320987654320988,0,0,0.04320987654320988,43.98765432098766,0)" xlink:href="#N"/></g><path d="M177-190C167-65 218 103 67 71c-23-6-38-20-44-43l32-5c15 47 100 32 89-28v-30C133-14 115 1 83 1 29 1 15-40 15-95c0-56 16-97 71-98 29-1 48 16 59 35 1-10 0-23 2-32h30zM94-22c36 0 50-32 50-73 0-42-14-75-50-75-39 0-46 34-46 75s6 73 46 73" id="av"/><g id="n"><use transform="matrix(0.04320987654320988,0,0,0.04320987654320988,0,0)" xlink:href="#aj"/><use transform="matrix(0.04320987654320988,0,0,0.04320987654320988,8.641975308641976,0)" xlink:href="#W"/><use transform="matrix(0.04320987654320988,0,0,0.04320987654320988,13.783950617283953,0)" xlink:href="#av"/></g><path fill="#fff" d="M238-95c0 69-44 99-111 99C63 4 22-25 22-93v-155h51v151c-1 38 19 59 55 60 90 1 49-130 58-211h52v153" id="aw"/><use transform="matrix(0.03703703703703704,0,0,0.03703703703703704,0,0)" xlink:href="#aw" id="o"/><path fill="#fff" d="M169-182c-1-43-94-46-97-3 18 66 151 10 154 114 3 95-165 93-204 36-6-8-10-19-12-30l50-8c3 46 112 56 116 5-17-69-150-10-154-114-4-87 153-88 188-35 5 8 8 18 10 28" id="ax"/><use transform="matrix(0.03703703703703704,0,0,0.03703703703703704,0,0)" xlink:href="#ax" id="p"/><path d="M143 4C61 4 22-44 18-125c-5-107 100-154 193-111 17 8 29 25 37 43l-32 9c-13-25-37-40-76-40-61 0-88 39-88 99 0 61 29 100 91 101 35 0 62-11 79-27v-45h-74v-28h105v86C228-13 192 4 143 4" id="ay"/><path d="M205 0l-28-72H64L36 0H1l101-248h38L239 0h-34zm-38-99l-47-123c-12 45-31 82-46 123h93" id="az"/><path d="M155-56V0h-30v-56H8v-25l114-167h33v167h35v25h-35zm-30-156c-27 46-58 90-88 131h88v-131" id="aA"/><path d="M197 0v-115H63V0H30v-248h33v105h134v-105h34V0h-34" id="aB"/><g id="q"><use transform="matrix(0.030864197530864196,0,0,0.030864197530864196,0,0)" xlink:href="#ay"/><use transform="matrix(0.030864197530864196,0,0,0.030864197530864196,8.641975308641975,0)" xlink:href="#az"/><use transform="matrix(0.030864197530864196,0,0,0.030864197530864196,16.04938271604938,0)" xlink:href="#aA"/><use transform="matrix(0.030864197530864196,0,0,0.030864197530864196,22.222222222222218,0)" xlink:href="#ay"/><use transform="matrix(0.030864197530864196,0,0,0.030864197530864196,30.864197530864192,0)" xlink:href="#aB"/></g><path d="M33 0v-248h34V0H33" id="aC"/><g id="r"><use transform="matrix(0.030864197530864196,0,0,0.030864197530864196,0,0)" xlink:href="#az"/><use transform="matrix(0.030864197530864196,0,0,0.030864197530864196,7.4074074074074066,0)" xlink:href="#az"/><use transform="matrix(0.030864197530864196,0,0,0.030864197530864196,14.814814814814813,0)" xlink:href="#aC"/></g><g id="s"><use transform="matrix(0.030864197530864196,0,0,0.030864197530864196,0,0)" xlink:href="#U"/><use transform="matrix(0.030864197530864196,0,0,0.030864197530864196,5.555555555555555,0)" xlink:href="#ak"/><use transform="matrix(0.030864197530864196,0,0,0.030864197530864196,11.728395061728396,0)" xlink:href="#V"/><use transform="matrix(0.030864197530864196,0,0,0.030864197530864196,17.901234567901234,0)" xlink:href="#Z"/></g><path fill="#fff" d="M67-125c0 53 21 87 73 88 37 1 54-22 65-47l45 17C233-25 199 4 140 4 58 4 20-42 15-125 8-235 124-281 211-232c18 10 29 29 36 50l-46 12c-8-25-30-41-62-41-52 0-71 34-72 86" id="aD"/><use transform="matrix(0.05,0,0,0.05,0,0)" xlink:href="#aD" id="t"/><path d="M18-150v-26h174v26H18zm0 90v-26h174v26H18" id="aE"/><use transform="matrix(0.03703703703703704,0,0,0.03703703703703704,0,0)" xlink:href="#aE" id="u"/><path d="M210-169c-67 3-38 105-44 169h-31v-121c0-29-5-50-35-48C34-165 62-65 56 0H25l-1-190h30c1 10-1 24 2 32 10-44 99-50 107 0 11-21 27-35 58-36 85-2 47 119 55 194h-31v-121c0-29-5-49-35-48" id="aF"/><g id="v"><use transform="matrix(0.03703703703703704,0,0,0.03703703703703704,0,0)" xlink:href="#Z"/><use transform="matrix(0.03703703703703704,0,0,0.03703703703703704,6.666666666666668,0)" xlink:href="#aj"/><use transform="matrix(0.03703703703703704,0,0,0.03703703703703704,14.074074074074076,0)" xlink:href="#aF"/><use transform="matrix(0.03703703703703704,0,0,0.03703703703703704,25.148148148148152,0)" xlink:href="#ak"/><use transform="matrix(0.03703703703703704,0,0,0.03703703703703704,32.55555555555556,0)" xlink:href="#ao"/><use transform="matrix(0.03703703703703704,0,0,0.03703703703703704,35.48148148148148,0)" xlink:href="#Y"/><use transform="matrix(0.03703703703703704,0,0,0.03703703703703704,38.407407407407405,0)" xlink:href="#an"/><use transform="matrix(0.03703703703703704,0,0,0.03703703703703704,45.81481481481481,0)" xlink:href="#am"/><use transform="matrix(0.03703703703703704,0,0,0.03703703703703704,53.222222222222214,0)" xlink:href="#al"/></g><g id="w"><use transform="matrix(0.03703703703703704,0,0,0.03703703703703704,0,0)" xlink:href="#U"/><use transform="matrix(0.03703703703703704,0,0,0.03703703703703704,6.666666666666668,0)" xlink:href="#V"/><use transform="matrix(0.03703703703703704,0,0,0.03703703703703704,14.074074074074076,0)" xlink:href="#W"/><use transform="matrix(0.03703703703703704,0,0,0.03703703703703704,18.481481481481485,0)" xlink:href="#X"/><use transform="matrix(0.03703703703703704,0,0,0.03703703703703704,25.148148148148152,0)" xlink:href="#Y"/><use transform="matrix(0.03703703703703704,0,0,0.03703703703703704,28.074074074074076,0)" xlink:href="#Z"/><use transform="matrix(0.03703703703703704,0,0,0.03703703703703704,34.74074074074075,0)" xlink:href="#V"/></g><path d="M206 0h-36l-40-164L89 0H53L-1-190h32L70-26l43-164h34l41 164 42-164h31" id="aG"/><path d="M106-169C34-169 62-67 57 0H25v-261h32l-1 103c12-21 28-36 61-36 89 0 53 116 60 194h-32v-121c2-32-8-49-39-48" id="aH"/><g id="x"><use transform="matrix(0.03703703703703704,0,0,0.03703703703703704,0,0)" xlink:href="#aG"/><use transform="matrix(0.03703703703703704,0,0,0.03703703703703704,9.592592592592593,0)" xlink:href="#Y"/><use transform="matrix(0.03703703703703704,0,0,0.03703703703703704,12.518518518518517,0)" xlink:href="#al"/><use transform="matrix(0.03703703703703704,0,0,0.03703703703703704,16.22222222222222,0)" xlink:href="#aH"/></g><g id="y"><use transform="matrix(0.03703703703703704,0,0,0.03703703703703704,0,0)" xlink:href="#ay"/><use transform="matrix(0.03703703703703704,0,0,0.03703703703703704,10.370370370370372,0)" xlink:href="#az"/><use transform="matrix(0.03703703703703704,0,0,0.03703703703703704,19.259259259259256,0)" xlink:href="#aA"/><use transform="matrix(0.03703703703703704,0,0,0.03703703703703704,26.666666666666664,0)" xlink:href="#ay"/><use transform="matrix(0.03703703703703704,0,0,0.03703703703703704,37.03703703703704,0)" xlink:href="#aB"/></g><g id="z"><use transform="matrix(0.03703703703703704,0,0,0.03703703703703704,0,0)" xlink:href="#az"/><use transform="matrix(0.03703703703703704,0,0,0.03703703703703704,8.88888888888889,0)" xlink:href="#az"/><use transform="matrix(0.03703703703703704,0,0,0.03703703703703704,17.77777777777778,0)" xlink:href="#aC"/></g><g id="A"><use transform="matrix(0.03703703703703704,0,0,0.03703703703703704,0,0)" xlink:href="#U"/><use transform="matrix(0.03703703703703704,0,0,0.03703703703703704,6.666666666666668,0)" xlink:href="#ak"/><use transform="matrix(0.03703703703703704,0,0,0.03703703703703704,14.074074074074076,0)" xlink:href="#V"/><use transform="matrix(0.03703703703703704,0,0,0.03703703703703704,21.481481481481485,0)" xlink:href="#Z"/></g><path d="M84 4C-5 8 30-112 23-190h32v120c0 31 7 50 39 49 72-2 45-101 50-169h31l1 190h-30c-1-10 1-25-2-33-11 22-28 36-60 37" id="aI"/><path d="M101-234c-31-9-42 10-38 44h38v23H63V0H32v-167H5v-23h27c-7-52 17-82 69-68v24" id="aJ"/><path d="M85-194c31 0 48 13 60 33l-1-100h32l1 261h-30c-2-10 0-23-3-31C134-8 116 4 85 4 32 4 16-35 15-94c0-66 23-100 70-100zm9 24c-40 0-46 34-46 75 0 40 6 74 45 74 42 0 51-32 51-76 0-42-9-74-50-73" id="aK"/><g id="B"><use transform="matrix(0.03703703703703704,0,0,0.03703703703703704,0,0)" xlink:href="#aI"/><use transform="matrix(0.03703703703703704,0,0,0.03703703703703704,7.407407407407408,0)" xlink:href="#am"/><use transform="matrix(0.03703703703703704,0,0,0.03703703703703704,14.814814814814817,0)" xlink:href="#U"/><use transform="matrix(0.03703703703703704,0,0,0.03703703703703704,21.481481481481485,0)" xlink:href="#ak"/><use transform="matrix(0.03703703703703704,0,0,0.03703703703703704,28.888888888888893,0)" xlink:href="#V"/><use transform="matrix(0.03703703703703704,0,0,0.03703703703703704,36.296296296296305,0)" xlink:href="#Z"/><use transform="matrix(0.03703703703703704,0,0,0.03703703703703704,42.962962962962976,0)" xlink:href="#Y"/><use transform="matrix(0.03703703703703704,0,0,0.03703703703703704,45.8888888888889,0)" xlink:href="#aJ"/><use transform="matrix(0.03703703703703704,0,0,0.03703703703703704,49.5925925925926,0)" xlink:href="#Y"/><use transform="matrix(0.03703703703703704,0,0,0.03703703703703704,52.518518518518526,0)" xlink:href="#V"/><use transform="matrix(0.03703703703703704,0,0,0.03703703703703704,59.92592592592593,0)" xlink:href="#aK"/></g><path d="M68-38c1 34 0 65-14 84H32c9-13 17-26 17-46H33v-38h35" id="aL"/><g id="C"><use transform="matrix(0.03703703703703704,0,0,0.03703703703703704,0,0)" xlink:href="#Z"/><use transform="matrix(0.03703703703703704,0,0,0.03703703703703704,6.666666666666668,0)" xlink:href="#ao"/><use transform="matrix(0.03703703703703704,0,0,0.03703703703703704,9.592592592592595,0)" xlink:href="#Y"/><use transform="matrix(0.03703703703703704,0,0,0.03703703703703704,12.518518518518523,0)" xlink:href="#V"/><use transform="matrix(0.03703703703703704,0,0,0.03703703703703704,19.925925925925934,0)" xlink:href="#am"/><use transform="matrix(0.03703703703703704,0,0,0.03703703703703704,27.333333333333343,0)" xlink:href="#al"/><use transform="matrix(0.03703703703703704,0,0,0.03703703703703704,31.037037037037045,0)" xlink:href="#U"/><use transform="matrix(0.03703703703703704,0,0,0.03703703703703704,37.70370370370371,0)" xlink:href="#aL"/></g><g id="D"><use transform="matrix(0.03703703703703704,0,0,0.03703703703703704,0,0)" xlink:href="#an"/><use transform="matrix(0.03703703703703704,0,0,0.03703703703703704,7.407407407407408,0)" xlink:href="#aK"/><use transform="matrix(0.03703703703703704,0,0,0.03703703703703704,14.814814814814817,0)" xlink:href="#aK"/><use transform="matrix(0.03703703703703704,0,0,0.03703703703703704,22.222222222222225,0)" xlink:href="#Y"/><use transform="matrix(0.03703703703703704,0,0,0.03703703703703704,25.148148148148152,0)" xlink:href="#al"/><use transform="matrix(0.03703703703703704,0,0,0.03703703703703704,28.851851851851855,0)" xlink:href="#Y"/><use transform="matrix(0.03703703703703704,0,0,0.03703703703703704,31.777777777777782,0)" xlink:href="#aj"/><use transform="matrix(0.03703703703703704,0,0,0.03703703703703704,39.18518518518519,0)" xlink:href="#am"/><use transform="matrix(0.03703703703703704,0,0,0.03703703703703704,46.592592592592595,0)" xlink:href="#an"/><use transform="matrix(0.03703703703703704,0,0,0.03703703703703704,54,0)" xlink:href="#ao"/></g><g id="E"><use transform="matrix(0.03703703703703704,0,0,0.03703703703703704,0,0)" xlink:href="#U"/><use transform="matrix(0.03703703703703704,0,0,0.03703703703703704,6.666666666666668,0)" xlink:href="#V"/><use transform="matrix(0.03703703703703704,0,0,0.03703703703703704,14.074074074074076,0)" xlink:href="#W"/><use transform="matrix(0.03703703703703704,0,0,0.03703703703703704,18.481481481481485,0)" xlink:href="#X"/><use transform="matrix(0.03703703703703704,0,0,0.03703703703703704,25.148148148148152,0)" xlink:href="#Y"/><use transform="matrix(0.03703703703703704,0,0,0.03703703703703704,28.074074074074076,0)" xlink:href="#Z"/><use transform="matrix(0.03703703703703704,0,0,0.03703703703703704,34.74074074074075,0)" xlink:href="#V"/><use transform="matrix(0.03703703703703704,0,0,0.03703703703703704,42.14814814814815,0)" xlink:href="#U"/><use transform="matrix(0.03703703703703704,0,0,0.03703703703703704,48.814814814814824,0)" xlink:href="#aL"/></g><g id="F"><use transform="matrix(0.03703703703703704,0,0,0.03703703703703704,0,0)" xlink:href="#ak"/><use transform="matrix(0.03703703703703704,0,0,0.03703703703703704,7.407407407407408,0)" xlink:href="#W"/><use transform="matrix(0.03703703703703704,0,0,0.03703703703703704,11.814814814814817,0)" xlink:href="#aj"/><use transform="matrix(0.03703703703703704,0,0,0.03703703703703704,19.222222222222225,0)" xlink:href="#al"/><use transform="matrix(0.03703703703703704,0,0,0.03703703703703704,22.925925925925927,0)" xlink:href="#aj"/><use transform="matrix(0.03703703703703704,0,0,0.03703703703703704,30.333333333333336,0)" xlink:href="#Z"/><use transform="matrix(0.03703703703703704,0,0,0.03703703703703704,37.00000000000001,0)" xlink:href="#aj"/><use transform="matrix(0.03703703703703704,0,0,0.03703703703703704,44.40740740740742,0)" xlink:href="#ao"/><use transform="matrix(0.03703703703703704,0,0,0.03703703703703704,47.33333333333334,0)" xlink:href="#U"/></g><g id="G"><use transform="matrix(0.03703703703703704,0,0,0.03703703703703704,0,0)" xlink:href="#U"/><use transform="matrix(0.03703703703703704,0,0,0.03703703703703704,6.666666666666668,0)" xlink:href="#ak"/><use transform="matrix(0.03703703703703704,0,0,0.03703703703703704,14.074074074074076,0)" xlink:href="#V"/><use transform="matrix(0.03703703703703704,0,0,0.03703703703703704,21.481481481481485,0)" xlink:href="#Z"/><use transform="matrix(0.03703703703703704,0,0,0.03703703703703704,28.148148148148152,0)" xlink:href="#Y"/><use transform="matrix(0.03703703703703704,0,0,0.03703703703703704,31.07407407407408,0)" xlink:href="#aJ"/><use transform="matrix(0.03703703703703704,0,0,0.03703703703703704,34.777777777777786,0)" xlink:href="#Y"/><use transform="matrix(0.03703703703703704,0,0,0.03703703703703704,37.70370370370371,0)" xlink:href="#V"/><use transform="matrix(0.03703703703703704,0,0,0.03703703703703704,45.111111111111114,0)" xlink:href="#aK"/></g></defs></g></svg>