<?xml version="1.0" encoding="UTF-8"?>
<svg id="Layer_1" data-name="Layer 1" xmlns="http://www.w3.org/2000/svg" viewBox="0 0 400 400">
  <defs>
    <style>
      .cls-1 {
        fill: #2e3192;
      }

      .cls-1, .cls-2 {
        stroke-width: 0px;
      }

      .cls-2 {
        fill: #fff;
      }
    </style>
  </defs>
  <polygon class="cls-1" points="358.01 291.23 358.01 108.77 200 17.54 41.99 108.77 41.99 291.23 200 382.46 358.01 291.23"/>
  <path class="cls-2" d="m88.28,175.08l16,6.62c-2.4,12.46-2.26,25.02.11,37.06l-15.99,6.71c-2.23.94-3.28,3.5-2.34,5.73l11.84,28.23c.94,2.23,3.5,3.28,5.73,2.34l16-6.71c6.78,9.91,15.41,18.66,25.7,25.61l-6.62,16c-.92,2.23.14,4.79,2.37,5.72l28.28,11.7c2.23.92,4.79-.14,5.72-2.37l6.62-16c12.46,2.4,25.02,2.26,37.06-.11l6.71,15.99c.94,2.23,3.5,3.28,5.73,2.34l28.23-11.84c2.23-.94,3.28-3.5,2.34-5.73l-6.71-16c9.91-6.78,18.66-15.41,25.61-25.7l16,6.62c2.23.92,4.79-.14,5.72-2.37l11.7-28.28c.92-2.23-.14-4.79-2.37-5.72l-16-6.62c2.4-12.46,2.26-25.02-.11-37.06l15.99-6.71c2.23-.94,3.28-3.5,2.34-5.73l-11.84-28.23c-.94-2.23-3.5-3.28-5.73-2.34l-16,6.71c-6.78-9.91-15.41-18.66-25.7-25.61l6.62-16c.92-2.23-.14-4.79-2.37-5.72l-28.28-11.7c-2.23-.92-4.79.14-5.72,2.37l-6.62,16c-12.46-2.4-25.02-2.26-37.06.11l-6.71-15.99c-.94-2.23-3.5-3.28-5.73-2.34l-28.23,11.84c-2.23.94-3.28,3.5-2.34,5.73l6.71,16c-9.91,6.78-18.66,15.41-25.61,25.7l-16-6.62c-2.23-.92-4.79.14-5.72,2.37l-11.7,28.28c-.92,2.23.14,4.79,2.37,5.72Zm49.9-.66c14.12-34.14,53.25-50.37,87.39-36.25,34.14,14.12,50.37,53.25,36.25,87.39-14.12,34.14-53.25,50.37-87.39,36.25-34.14-14.12-50.37-53.25-36.25-87.39Z"/>
</svg>