<?xml version="1.0" encoding="UTF-8"?>
<svg id="Layer_1" data-name="Layer 1" xmlns="http://www.w3.org/2000/svg" viewBox="0 0 400 400">
  <defs>
    <style>
      .cls-1 {
        fill: #9f79b0;
        stroke-width: 0px;
      }

      .cls-2 {
        fill: none;
        stroke: #9f79b0;
        stroke-miterlimit: 10;
        stroke-width: 10.56px;
      }
    </style>
  </defs>
  <path class="cls-1" d="m307.26,241.61c37.9,0,68.62-30.72,68.62-68.62s-30.72-68.62-68.62-68.62c-10.28,0-20,2.33-28.76,6.38-11.8-44.56-52.38-77.41-100.65-77.41-57.51,0-104.13,46.62-104.13,104.13,0,5.1.38,10.1,1.09,15-1.94-.26-3.9-.43-5.91-.43-24.73,0-44.78,20.05-44.78,44.78s20.02,44.75,44.72,44.78h0s236.24,0,236.24,0h2.17Z"/>
  <path class="cls-2" d="m130.64,203.7v93.91c0,9.72-7.88,17.59-17.59,17.59H45.24"/>
  <line class="cls-2" x1="200" y1="203.7" x2="200" y2="346.47"/>
  <path class="cls-2" d="m272.38,227.8v38.84c0,9.72,7.88,17.59,17.59,17.59h51.04"/>
  <circle class="cls-1" cx="352.8" cy="284.23" r="14.86"/>
  <circle class="cls-1" cx="200" cy="351.8" r="14.86"/>
  <circle class="cls-1" cx="45.24" cy="315.2" r="14.86"/>
</svg>