<?xml version="1.0" encoding="UTF-8"?>
<svg id="Layer_1" data-name="Layer 1" xmlns="http://www.w3.org/2000/svg" viewBox="0 0 400 400">
  <defs>
    <style>
      .cls-1, .cls-2, .cls-3 {
        stroke-miterlimit: 10;
      }

      .cls-1, .cls-3 {
        stroke: #8cc63e;
        stroke-width: 9.55px;
      }

      .cls-1, .cls-4 {
        fill: #fff;
      }

      .cls-2 {
        fill: #8cc63e;
        stroke: #fff;
        stroke-width: 5.71px;
      }

      .cls-5 {
        letter-spacing: -.02em;
      }

      .cls-3 {
        fill: none;
      }

      .cls-4 {
        font-family: ProximaNova-Bold, 'Proxima Nova';
        font-size: 55.73px;
        font-weight: 700;
      }
    </style>
  </defs>
  <circle class="cls-1" cx="200.75" cy="200" r="141.62"/>
  <circle class="cls-3" cx="200.75" cy="200" r="108.7"/>
  <g>
    <path class="cls-2" d="m388.34,187.14L29.73,276.06c-2.82.7-5.31-2.85-4.1-5.84l13.06-32.35c.7-1.73.16-3.89-1.26-5.09l-26.66-22.5c-2.46-2.08-1.92-6.38.9-7.08l358.62-88.93c2.82-.7,5.31,2.85,4.1,5.84l-13.06,32.35c-.7,1.73-.16,3.89,1.26,5.09l26.66,22.5c2.46,2.08,1.92,6.38-.9,7.08Z"/>
    <text class="cls-4" transform="translate(56.58 249.53) rotate(-13.93)"><tspan x="0" y="0">APPR</tspan><tspan class="cls-5" x="143.5" y="0">O</tspan><tspan x="185.02" y="0">VED</tspan></text>
  </g>
</svg>