<?xml version="1.0" encoding="UTF-8"?>
<svg id="Layer_1" data-name="Layer 1" xmlns="http://www.w3.org/2000/svg" viewBox="0 0 400 400">
  <defs>
    <style>
      .cls-1 {
        stroke: #4aacdd;
        stroke-width: 14.16px;
      }

      .cls-1, .cls-2 {
        fill: none;
        stroke-linecap: round;
      }

      .cls-1, .cls-2, .cls-3 {
        stroke-miterlimit: 10;
      }

      .cls-2 {
        stroke-width: 15.51px;
      }

      .cls-2, .cls-3 {
        stroke: #1173bd;
      }

      .cls-4 {
        fill: #4aacdd;
      }

      .cls-4, .cls-5 {
        stroke-width: 0px;
      }

      .cls-5 {
        fill: #bfe0f2;
      }

      .cls-3 {
        fill: #fff;
        stroke-width: 14.56px;
      }
    </style>
  </defs>
  <rect class="cls-3" x="36.69" y="30.09" width="261.94" height="339.81" rx="2.55" ry="2.55"/>
  <line class="cls-2" x1="86.25" y1="115.05" x2="256.15" y2="115.05"/>
  <line class="cls-2" x1="86.25" y1="157.52" x2="256.15" y2="157.52"/>
  <line class="cls-2" x1="86.25" y1="200" x2="188.19" y2="200"/>
  <path class="cls-1" d="m93.33,299.11s21.24,14.16,28.32-35.4c7.08-49.56,0,35.4,7.08,35.4s12.39-21.24,21.24-21.24c7.08,0,7.08,21.24,21.24,21.24s16.23-21.24,21.24-21.24c7.51,0,6.65,21.24,14.16,21.24,14.16,0,14.16-14.16,14.16-14.16"/>
  <g>
    <rect class="cls-5" x="291.16" y="42.78" width="24.79" height="229.37" rx="2.55" ry="2.55" transform="translate(91.94 -111.16) rotate(24.35)"/>
    <path class="cls-4" d="m243.25,293.83l21.95-24.19c1.16-1.28.74-3.32-.84-4.04l-16.37-7.41c-1.53-.69-3.29.25-3.57,1.91l-5.22,31.59c-.2,1.2.45,2.44,1.61,2.8.49.15,1.04.16,1.55-.03.35-.12.64-.36.89-.63Z"/>
    <circle class="cls-5" cx="350.91" cy="52.83" r="12.39"/>
  </g>
</svg>