<?xml version="1.0" encoding="UTF-8"?>
<svg id="Layer_1" data-name="Layer 1" xmlns="http://www.w3.org/2000/svg" viewBox="0 0 400 400">
  <defs>
    <style>
      .cls-1, .cls-2 {
        stroke-width: 2.08px;
      }

      .cls-1, .cls-2, .cls-3, .cls-4, .cls-5, .cls-6 {
        stroke: #1b75ba;
        stroke-miterlimit: 10;
      }

      .cls-1, .cls-7 {
        fill: #1b75ba;
      }

      .cls-2, .cls-4 {
        fill: none;
      }

      .cls-3, .cls-8 {
        fill: #c0e0f1;
      }

      .cls-3, .cls-5, .cls-6 {
        stroke-linecap: round;
        stroke-width: 6.75px;
      }

      .cls-4 {
        stroke-width: 4.79px;
      }

      .cls-9, .cls-7, .cls-8 {
        stroke-width: 0px;
      }

      .cls-9, .cls-5 {
        fill: #4eadda;
      }

      .cls-6 {
        fill: #f2f2f2;
      }
    </style>
  </defs>
  <g>
    <g>
      <circle class="cls-3" cx="199.27" cy="104.62" r="31.08"/>
      <path class="cls-3" d="m154.03,178.01c0-25.21,20.43-42.31,45.64-42.31s45.64,17.1,45.64,42.31"/>
    </g>
    <g>
      <circle class="cls-6" cx="104.41" cy="103.86" r="31.08"/>
      <path class="cls-6" d="m59.16,177.26c0-25.21,20.43-42.31,45.64-42.31s45.64,17.1,45.64,42.31"/>
    </g>
    <path class="cls-7" d="m245.37,181.43c0-16.52-2.82-30.93-15.07-35.71-7.35-2.87-7.42,3.61-30.99,3.61-22.26,0-21.78-8.67-29.68-4.97-10.84,5.08-16.77,21.78-16.77,37.07"/>
    <g>
      <circle class="cls-5" cx="294.96" cy="104.62" r="31.08"/>
      <path class="cls-5" d="m249.71,178.01c0-25.21,20.43-42.31,45.64-42.31s45.64,17.1,45.64,42.31"/>
    </g>
    <path class="cls-7" d="m341.05,181.43c0-16.52-2.82-30.93-15.07-35.71-7.35-2.87-7.42,3.61-30.99,3.61-22.26,0-21.78-8.67-29.68-4.97-10.84,5.08-16.77,21.78-16.77,37.07"/>
    <path class="cls-7" d="m151.01,180.95c0-16.66-2.85-31.21-15.2-36.02-7.41-2.89-7.48,3.64-31.26,3.64-22.45,0-21.97-8.75-29.94-5.01-10.93,5.13-15.67,21.58-15.67,37"/>
  </g>
  <path class="cls-8" d="m40.47,184.03h319.05v110.2c0,18.21-14.78,32.99-32.99,32.99H73.46c-18.21,0-32.99-14.78-32.99-32.99v-110.2h0Z"/>
  <rect class="cls-9" x="13.88" y="175.36" width="372.25" height="30.27" rx="7.38" ry="7.38"/>
  <g>
    <line class="cls-2" x1="237.02" y1="225.86" x2="257.57" y2="266.15"/>
    <path class="cls-1" d="m257.47,266.21c0,7.61-9.13,13.78-20.38,13.78s-20.38-6.17-20.38-13.78h40.76Z"/>
    <path class="cls-1" d="m183.19,266.21c0,7.61-9.13,13.78-20.38,13.78s-20.38-6.17-20.38-13.78h40.76Z"/>
    <line class="cls-4" x1="199.95" y1="225.92" x2="199.95" y2="302.75"/>
    <line class="cls-2" x1="162.88" y1="226.03" x2="142.5" y2="266.15"/>
    <path class="cls-1" d="m225.45,310.53h-50.83c-.2,0-.28-.25-.12-.37l9.81-7.36s.08-.04.12-.04h31.2s.09.01.12.04l9.81,7.36c.16.12.07.37-.12.37Z"/>
    <circle class="cls-7" cx="199.95" cy="224.96" r="2.48"/>
    <polygon class="cls-7" points="237.63 224.82 162.24 225 161.72 226.03 182.31 266.61 184.16 265.68 164.57 227.07 235.33 226.9 215.74 265.68 217.59 266.61 238.17 225.88 237.63 224.82"/>
  </g>
</svg>