<?xml version="1.0" encoding="UTF-8"?>
<svg id="Layer_1" data-name="Layer 1" xmlns="http://www.w3.org/2000/svg" viewBox="0 0 400 400">
  <defs>
    <style>
      .cls-1 {
        fill: #0f74ba;
        stroke: #fff;
        stroke-linecap: round;
        stroke-miterlimit: 10;
        stroke-width: 17.67px;
      }

      .cls-2 {
        fill: #9e79af;
        stroke-width: 0px;
      }
    </style>
  </defs>
  <path class="cls-2" d="m317.81,384.05H98c-11.74,0-21.96-7.99-24.81-19.38-6.81-27.28-17.45-82.97-17.45-164.67s10.99-135.92,17.78-164.46c2.74-11.5,13.03-19.59,24.86-19.59h220.31c15.21,0,27.06,13.18,25.42,28.3-3.78,34.84-9.72,96.49-9.72,155.75,0,69.16,5.06,124.16,8.81,155.43,1.83,15.23-10.04,28.62-25.38,28.62Z"/>
  <line class="cls-1" x1="118.22" y1="77.79" x2="289.02" y2="77.79"/>
  <line class="cls-1" x1="106.44" y1="124.91" x2="277.24" y2="124.91"/>
  <line class="cls-1" x1="106.44" y1="172.02" x2="188.9" y2="172.02"/>
</svg>