<?xml version="1.0" encoding="UTF-8"?>
<svg id="Layer_1" data-name="Layer 1" xmlns="http://www.w3.org/2000/svg" viewBox="0 0 400 400">
  <defs>
    <style>
      .cls-1 {
        fill: #c1e1f2;
        opacity: .5;
      }

      .cls-1, .cls-2, .cls-3 {
        stroke-width: 0px;
      }

      .cls-2 {
        fill: #4faedc;
      }

      .cls-3 {
        fill: #9f79b0;
      }
    </style>
  </defs>
  <g>
    <path class="cls-2" d="m293.6,208.69c-7.3,5.46-17.64,10.33-30.75,14.48-26.52,8.39-61.71,13.01-99.09,13.01s-72.57-4.62-99.09-13.01c-13.11-4.15-23.45-9.02-30.75-14.48-2.02-1.51-3.8-3.06-5.32-4.65v51.47c0,9.93,13.91,20.03,38.18,27.7,25.86,8.18,60.3,12.69,96.99,12.69s71.13-4.51,96.99-12.69c24.26-7.68,38.18-17.78,38.18-27.7v-51.47c-1.53,1.58-3.3,3.13-5.32,4.65Z"/>
    <path class="cls-2" d="m293.6,142c-7.3,5.46-17.64,10.33-30.75,14.48-26.52,8.39-61.71,13.01-99.09,13.01s-72.57-4.62-99.09-13.01c-13.11-4.15-23.45-9.02-30.75-14.48-2.02-1.51-3.8-3.06-5.32-4.65v51.47c0,9.93,13.91,20.03,38.18,27.7,25.86,8.18,60.3,12.69,96.99,12.69s71.13-4.51,96.99-12.69c24.26-7.68,38.18-17.78,38.18-27.7v-51.47c-1.53,1.58-3.3,3.13-5.32,4.65Z"/>
    <g>
      <path class="cls-2" d="m66.77,86.65c25.86,8.18,60.3,12.69,96.99,12.69s71.13-4.51,96.99-12.69c24.26-7.68,38.18-17.78,38.18-27.7s-13.91-20.03-38.18-27.7c-25.86-8.18-60.3-12.69-96.99-12.69s-71.13,4.51-96.99,12.69c-24.26,7.68-38.18,17.78-38.18,27.7s13.91,20.03,38.18,27.7Z"/>
      <path class="cls-2" d="m293.6,78.82c-7.3,5.46-17.64,10.33-30.75,14.48-26.52,8.39-61.71,13.01-99.09,13.01s-72.57-4.62-99.09-13.01c-13.11-4.15-23.45-9.02-30.75-14.48-2.02-1.51-3.8-3.06-5.32-4.65v47.96c0,9.93,13.91,20.03,38.18,27.7,25.86,8.18,60.3,12.69,96.99,12.69s71.13-4.51,96.99-12.69c24.26-7.68,38.18-17.78,38.18-27.7v-47.96c-1.53,1.58-3.3,3.13-5.32,4.65Z"/>
    </g>
  </g>
  <g>
    <path class="cls-3" d="m320.44,300.92l48.79,63.51h-.01c3.56,4.64,2.69,11.28-1.94,14.83-4.63,3.56-11.26,2.69-14.82-1.94h-.01s-48.79-63.49-48.79-63.49l16.79-12.9Z"/>
    <circle class="cls-1" cx="272.72" cy="247.11" r="69.61"/>
    <path class="cls-3" d="m237.88,322.61c40.53,18.01,87.98-.25,105.99-40.78,18.01-40.53-.25-87.98-40.78-105.99-40.53-18.01-87.98.25-105.99,40.78-18.01,40.53.25,87.98,40.78,105.99Zm6.32-14.22c-32.67-14.52-47.39-52.77-32.88-85.45,14.52-32.67,52.77-47.4,85.45-32.88,32.67,14.52,47.4,52.77,32.88,85.45-14.52,32.67-52.77,47.4-85.45,32.88Z"/>
  </g>
</svg>