<?xml version="1.0" encoding="UTF-8"?>
<svg id="Layer_1" data-name="Layer 1" xmlns="http://www.w3.org/2000/svg" viewBox="0 0 400 400">
  <defs>
    <style>
      .cls-1 {
        fill: #c0e0f1;
        opacity: .5;
      }

      .cls-1, .cls-2 {
        stroke-width: 0px;
      }

      .cls-2 {
        fill: #1b75ba;
      }
    </style>
  </defs>
  <path class="cls-2" d="m133.9,242.9l-81.33,105.85.02.02c-5.93,7.72-4.48,18.78,3.24,24.71,7.72,5.93,18.78,4.48,24.71-3.24l.02.02,81.33-105.85-27.99-21.51Z"/>
  <circle class="cls-1" cx="213.45" cy="153.22" r="116.02"/>
  <path class="cls-2" d="m339.49,102.41C309.48,34.85,230.39,4.42,162.83,34.43c-67.56,30.01-97.99,109.11-67.98,176.66,30.01,67.56,109.11,97.99,176.66,67.98,67.56-30.01,97.99-109.11,67.98-176.66Zm-220.94,98.15c-24.2-54.46.34-118.23,54.8-142.43,54.46-24.2,118.23.34,142.43,54.8,24.2,54.46-.34,118.23-54.8,142.43-54.46,24.2-118.23-.34-142.43-54.8Z"/>
</svg>