<?xml version="1.0" encoding="UTF-8"?>
<svg id="Layer_1" data-name="Layer 1" xmlns="http://www.w3.org/2000/svg" xmlns:xlink="http://www.w3.org/1999/xlink" viewBox="0 0 400 400">
  <defs>
    <style>
      .cls-1 {
        filter: url(#drop-shadow-2);
      }

      .cls-2 {
        fill: #f2f2f2;
      }

      .cls-2, .cls-3, .cls-4, .cls-5, .cls-6, .cls-7, .cls-8, .cls-9, .cls-10, .cls-11 {
        stroke-width: 0px;
      }

      .cls-3 {
        fill: #faa633;
      }

      .cls-4 {
        fill: #76787a;
      }

      .cls-5 {
        fill: #4faedc;
      }

      .cls-6 {
        fill: #1b75bb;
      }

      .cls-7 {
        fill: #ccc;
      }

      .cls-8 {
        fill: #b3b3b3;
      }

      .cls-9 {
        fill: #8cc63e;
      }

      .cls-10 {
        fill: #fff;
      }

      .cls-11 {
        fill: #e6e6e6;
      }
    </style>
    <filter id="drop-shadow-2" filterUnits="userSpaceOnUse">
      <feOffset dx="-7.66" dy="0"/>
      <feGaussianBlur result="blur" stdDeviation="95.79"/>
      <feFlood flood-color="#000" flood-opacity=".25"/>
      <feComposite in2="blur" operator="in"/>
      <feComposite in="SourceGraphic"/>
    </filter>
  </defs>
  <g class="cls-1">
    <g>
      <path class="cls-6" d="m297.88,24.31L64.14,56.38c-3.62.5-6.47,3.35-6.96,6.97l-18.72,138.68,244.07-33.49c.7-.1,1.26-.64,1.38-1.33l23.09-133.45c.94-5.42-3.67-10.19-9.12-9.45Z"/>
      <path class="cls-6" d="m37.94,202.56l.08-.59L56.74,63.29c.51-3.81,3.53-6.84,7.34-7.36l233.74-32.08.06.45-.06-.45c2.74-.38,5.42.55,7.34,2.54,1.92,1.99,2.76,4.7,2.28,7.43l-23.09,133.45c-.16.9-.86,1.58-1.76,1.7l-244.65,33.57ZM297.94,24.75L64.2,56.83c-3.41.47-6.11,3.18-6.57,6.59l-18.64,138.09,243.48-33.41c.51-.07.91-.46,1-.97l23.09-133.45c.42-2.44-.32-4.87-2.04-6.65-1.72-1.78-4.12-2.61-6.57-2.28h0Z"/>
    </g>
    <g>
      <rect class="cls-2" x="49.24" y="184.33" width="248.36" height="175.49" rx="4.54" ry="4.54" transform="translate(-35.38 26.1) rotate(-7.81)"/>
      <path class="cls-6" d="m65.6,376.22c-1.01,0-1.99-.33-2.81-.95-.99-.75-1.63-1.85-1.8-3.08l-23.28-169.67c-.04-.32.04-.63.23-.89.19-.26.47-.42.79-.46l245.29-33.66c.32-.04.63.04.89.23.26.19.42.48.46.79l23.28,169.67c.17,1.23-.15,2.46-.9,3.45-.75.99-1.85,1.63-3.08,1.8h0l-238.43,32.72c-.21.03-.43.04-.64.04Zm-26.22-173.5l23.23,169.25c.11.8.53,1.51,1.17,2,.64.49,1.44.7,2.25.59l238.43-32.72.11.81-.11-.81c.8-.11,1.51-.53,2-1.17.49-.65.7-1.44.59-2.25l-23.23-169.25-244.44,33.55Z"/>
    </g>
    <polygon class="cls-11" points="320.77 38.9 85.58 71.22 38.47 200.88 284.52 167.11 320.77 38.9"/>
    <path class="cls-8" d="m330.94,324.59l-232.08,30.71c-3.54.47-6.9-1.69-7.95-5.1l-51.65-149.42,245.25-33.66,52.44,148.03c1.37,4.33-1.51,8.85-6.01,9.44Z"/>
    <g>
      <path class="cls-10" d="m300.26,319.51l-172.63,21.66c-8.25,1.04-16.83-3.27-19.15-9.62l-30.02-82.05c-2.32-6.35,2.49-12.33,10.74-13.37l172.63-21.66c8.25-1.04,16.83,3.27,19.15,9.62l30.02,82.05c2.32,6.35-2.49,12.33-10.74,13.37Z"/>
      <path class="cls-7" d="m300.26,319.51l-172.63,21.66c-8.25,1.04-16.83-3.27-19.15-9.62l-.49-1.34,202.52-25.41.49,1.34c2.32,6.35-2.49,12.33-10.74,13.37Z"/>
      <path class="cls-5" d="m283.59,231.22l-202.52,25.41-2.61-7.13c-2.32-6.35,2.49-12.33,10.74-13.37l172.63-21.66c8.25-1.04,16.83,3.27,19.15,9.62l2.61,7.13Z"/>
      <g>
        <path class="cls-4" d="m184.22,255.61c-.99,0-1.85-.74-1.98-1.75-.14-1.09.64-2.09,1.73-2.23l90.1-11.31c1.09-.14,2.09.64,2.23,1.73.14,1.09-.64,2.09-1.73,2.23l-90.1,11.31c-.08.01-.17.02-.25.02Z"/>
        <path class="cls-4" d="m191.88,276.56c-.99,0-1.85-.74-1.98-1.75-.14-1.09.64-2.09,1.73-2.23l90.1-11.31c1.1-.14,2.09.64,2.23,1.73.14,1.09-.64,2.09-1.73,2.23l-90.1,11.31c-.08.01-.17.02-.25.02Z"/>
        <path class="cls-7" d="m194.39,283.4c-.99,0-1.85-.74-1.98-1.75-.14-1.09.64-2.09,1.73-2.23l52.98-6.65c1.09-.14,2.09.64,2.23,1.73.14,1.09-.64,2.09-1.73,2.23l-52.98,6.65c-.08.01-.17.02-.25.02Z"/>
        <path class="cls-4" d="m199.44,297.21c-.99,0-1.85-.74-1.98-1.75-.14-1.09.64-2.09,1.73-2.23l90.1-11.31c1.09-.14,2.09.64,2.23,1.73.14,1.09-.64,2.09-1.73,2.23l-90.1,11.31c-.08.01-.17.02-.25.02Z"/>
        <path class="cls-7" d="m201.94,304.05c-.99,0-1.85-.74-1.98-1.75-.14-1.09.64-2.09,1.73-2.23l90.1-11.31c1.09-.14,2.09.64,2.23,1.73.14,1.09-.64,2.09-1.73,2.23l-90.1,11.31c-.08.01-.17.02-.25.02Z"/>
        <path class="cls-7" d="m204.4,310.77c-.99,0-1.85-.74-1.98-1.75-.14-1.09.64-2.09,1.73-2.23l67.83-8.51c1.09-.14,2.09.64,2.23,1.73.14,1.09-.64,2.09-1.73,2.23l-67.83,8.51c-.08.01-.17.02-.25.02Z"/>
        <path class="cls-7" d="m186.61,262.14c-.99,0-1.85-.74-1.98-1.75-.14-1.09.64-2.09,1.73-2.23l82.68-10.37c1.1-.14,2.09.64,2.23,1.73.14,1.09-.64,2.09-1.73,2.23l-82.68,10.37c-.08.01-.17.02-.25.02Z"/>
      </g>
      <path class="cls-10" d="m123.39,335.58c-.33,0-.62-.25-.66-.58-.05-.37.21-.7.58-.74l41.34-5.19c.37-.04.7.21.74.58.05.37-.21.7-.58.74l-41.34,5.19s-.06,0-.08,0Z"/>
      <path class="cls-10" d="m172.15,329.46c-.33,0-.62-.25-.66-.58-.05-.37.21-.7.58-.74l85.89-10.78c.37-.05.7.21.74.58.05.37-.21.7-.58.74l-85.89,10.78s-.06,0-.08,0Z"/>
      <path class="cls-10" d="m264.89,317.82c-.33,0-.62-.25-.66-.58-.05-.37.21-.7.58-.74l33.91-4.26c.37-.05.7.21.74.58.05.37-.21.7-.58.74l-33.91,4.26s-.06,0-.08,0Z"/>
      <path class="cls-5" d="m125.18,342.58c-7.93,0-15.63-4.41-17.89-10.59l-30.01-82.05c-1.1-3-.81-6.1.8-8.75,2.07-3.39,6.06-5.68,10.97-6.3l172.63-21.66c8.79-1.1,17.98,3.58,20.49,10.43l30.01,82.05c1.1,3,.81,6.1-.8,8.75-2.07,3.39-6.06,5.68-10.97,6.3h0l-172.63,21.66c-.86.11-1.73.16-2.6.16Zm139.15-127c-.78,0-1.56.05-2.34.15l-172.63,21.66c-4.14.52-7.47,2.38-9.14,5.12-1.22,2-1.42,4.28-.58,6.57l30.01,82.05c2.13,5.82,10.12,9.77,17.81,8.8l172.63-21.66c4.14-.52,7.47-2.38,9.14-5.12,1.22-2,1.42-4.28.58-6.57l-30.02-82.05c-1.91-5.23-8.56-8.95-15.47-8.95Z"/>
      <g>
        <path class="cls-5" d="m124.73,265.03l5.21-5.69c.2-.22.6-.26.92-.1l8.57,4.17c.2.1.44.12.65.06l8.56-2.54c.32-.1.72.02.92.28l5.24,6.68c.12.16.33.27.56.3l9.61,1.28c.36.05.66.3.68.58l.5,7.4c.01.18.13.35.32.46l8.09,4.76c.31.18.41.5.25.73l-4.37,6.14c-.1.15-.1.33,0,.5l4.4,6.97c.17.26.06.56-.25.68l-8.07,3.23c-.19.08-.31.22-.32.4l-.47,7.31c-.02.28-.31.47-.67.45l-9.61-.54c-.23-.01-.44.06-.56.19l-5.21,5.69c-.2.22-.6.26-.92.1l-8.57-4.17c-.2-.1-.44-.12-.65-.06l-8.56,2.54c-.32.1-.72-.02-.92-.28l-5.24-6.68c-.12-.16-.33-.27-.56-.3l-9.61-1.28c-.36-.05-.66-.3-.68-.58l-.5-7.4c-.01-.18-.13-.35-.32-.46l-8.09-4.76c-.31-.18-.41-.5-.25-.73l4.37-6.14c.1-.15.1-.33,0-.5l-4.4-6.97c-.17-.26-.06-.56.25-.68l8.07-3.23c.19-.08.31-.22.32-.4l.47-7.31c.02-.28.31-.47.67-.45l9.61.54c.23.01.44-.06.56-.19Z"/>
        <path class="cls-10" d="m143.17,303.46l-17.91-7.56c-1.28-.54-1.88-2.01-1.34-3.29.54-1.28,2.01-1.88,3.29-1.34l13.32,5.62,9.66-22.23c.55-1.27,2.03-1.86,3.31-1.3,1.27.55,1.86,2.03,1.3,3.31l-11.64,26.8Z"/>
      </g>
    </g>
    <path class="cls-7" d="m355.95,259.19l-232.08,30.71c-3.54.47-6.9-1.69-7.95-5.1l-76.65-84.03,245.25-33.66,77.44,82.64c1.37,4.33-1.51,8.85-6.01,9.44Z"/>
    <g>
      <path class="cls-10" d="m330.82,256.79l-171.78,21.76c-8.21,1.04-18.66-2.01-23.34-6.82l-60.45-62.13c-4.68-4.81-1.81-9.55,6.41-10.59l171.78-21.76c8.21-1.04,18.66,2.01,23.34,6.82l60.45,62.13c4.68,4.81,1.81,9.55-6.41,10.59Z"/>
      <path class="cls-7" d="m330.82,256.79l-171.78,21.76c-8.21,1.04-18.66-2.01-23.34-6.82l-.98-1.01,201.52-25.53.98,1.01c4.68,4.81,1.81,9.55-6.41,10.59Z"/>
      <path class="cls-3" d="m282.03,189.47l-201.52,25.53-5.25-5.4c-4.68-4.81-1.81-9.55,6.41-10.59l171.78-21.76c8.21-1.04,18.66,2.01,23.34,6.82l5.25,5.4Z"/>
      <g>
        <path class="cls-4" d="m186.69,211.41c-.89,0-1.67-.66-1.78-1.57-.12-.98.57-1.88,1.56-2.01l89.66-11.36c.99-.13,1.88.57,2.01,1.56.12.98-.57,1.88-1.56,2.01l-89.66,11.36c-.08,0-.15.01-.23.01Z"/>
        <path class="cls-4" d="m202.12,227.28c-.89,0-1.67-.66-1.78-1.57-.12-.98.57-1.88,1.56-2.01l89.66-11.36c.99-.13,1.88.57,2.01,1.56.12.98-.57,1.88-1.56,2.01l-89.66,11.36c-.08,0-.15.01-.23.01Z"/>
        <path class="cls-7" d="m207.16,232.46c-.89,0-1.67-.66-1.78-1.57-.12-.98.57-1.88,1.56-2.01l52.72-6.68c.98-.13,1.88.57,2.01,1.56.12.98-.57,1.88-1.56,2.01l-52.72,6.68c-.08,0-.15.01-.23.01Z"/>
        <path class="cls-4" d="m217.34,242.92c-.89,0-1.67-.66-1.78-1.57-.12-.98.57-1.88,1.56-2.01l89.66-11.36c.98-.13,1.88.57,2.01,1.56.12.98-.57,1.88-1.56,2.01l-89.66,11.36c-.08,0-.15.01-.23.01Z"/>
        <path class="cls-7" d="m222.38,248.1c-.89,0-1.67-.66-1.78-1.57-.12-.98.57-1.88,1.56-2.01l89.66-11.36c.99-.13,1.88.57,2.01,1.56.12.98-.57,1.88-1.56,2.01l-89.66,11.36c-.08,0-.15.01-.23.01Z"/>
        <path class="cls-7" d="m227.33,253.18c-.89,0-1.67-.66-1.78-1.57-.12-.98.57-1.88,1.56-2.01l67.49-8.55c.98-.13,1.88.57,2.01,1.56.12.98-.57,1.88-1.56,2.01l-67.49,8.55c-.08,0-.15.01-.23.01Z"/>
        <path class="cls-7" d="m191.5,216.36c-.89,0-1.67-.66-1.78-1.57-.12-.98.57-1.88,1.56-2.01l82.27-10.42c.99-.13,1.88.57,2.01,1.56.12.98-.57,1.88-1.56,2.01l-82.27,10.42c-.08,0-.15.01-.23.01Z"/>
      </g>
      <path class="cls-10" d="m152.41,274.47c-.3,0-.56-.22-.59-.52-.04-.33.19-.63.52-.67l41.14-5.21c.33-.04.63.19.67.52.04.33-.19.63-.52.67l-41.14,5.21s-.05,0-.08,0Z"/>
      <path class="cls-10" d="m200.93,268.32c-.3,0-.56-.22-.59-.52-.04-.33.19-.63.52-.67l85.46-10.83c.33-.04.63.19.67.52.04.33-.19.63-.52.67l-85.46,10.83s-.05,0-.08,0Z"/>
      <path class="cls-10" d="m293.22,256.63c-.3,0-.56-.22-.59-.52-.04-.33.19-.63.52-.67l33.75-4.27c.33-.04.63.19.67.52.04.33-.19.63-.52.67l-33.75,4.27s-.05,0-.08,0Z"/>
      <path class="cls-3" d="m155.75,279.88c-7.82,0-16.61-2.99-20.85-7.36l-60.45-62.13c-2.25-2.31-3.06-4.82-2.27-7.05.99-2.83,4.4-4.81,9.35-5.44l171.78-21.76c8.51-1.08,19.41,2.13,24.29,7.15l60.45,62.13c2.25,2.31,3.06,4.82,2.27,7.05-.99,2.83-4.4,4.81-9.35,5.44l-171.78,21.76c-1.11.14-2.27.21-3.44.21Zm101.07-101.7c-1.11,0-2.19.06-3.24.2l-171.78,21.76c-4.01.51-6.81,1.98-7.5,3.95-.62,1.78.61,3.55,1.76,4.73l60.45,62.13c4.45,4.58,14.49,7.49,22.39,6.49l171.78-21.76.14,1.12-.14-1.12c4.01-.51,6.81-1.98,7.5-3.95.62-1.78-.61-3.55-1.76-4.73l-60.45-62.13c-3.86-3.97-11.92-6.68-19.14-6.68Z"/>
      <g>
        <path class="cls-3" d="m128.89,220.15l3.39-4.52c.13-.17.53-.22.92-.11l10.4,2.95c.25.07.51.08.7.03l7.99-2.21c.3-.08.76,0,1.06.18l7.83,4.97c.19.12.44.2.69.21l10.45.7c.4.03.79.21.91.43l3.16,5.67c.07.13.26.26.5.34l10.11,3.42c.38.13.61.37.52.55l-2.36,4.84c-.06.11.01.26.18.38l7.06,5.22c.27.2.26.43-.01.53l-7.24,2.72c-.17.06-.24.18-.19.32l2.12,5.63c.08.21-.15.37-.54.37l-10.19-.13c-.24,0-.43.06-.51.17l-3.39,4.52c-.13.17-.53.22-.92.11l-10.4-2.95c-.25-.07-.51-.08-.7-.03l-7.99,2.21c-.3.08-.76,0-1.06-.18l-7.83-4.97c-.19-.12-.44-.2-.69-.21l-10.45-.7c-.4-.03-.79-.21-.91-.43l-3.16-5.67c-.07-.13-.26-.26-.5-.34l-10.11-3.42c-.38-.13-.61-.37-.52-.55l2.36-4.84c.06-.11-.01-.26-.18-.38l-7.06-5.22c-.27-.2-.26-.43.01-.53l7.24-2.72c.17-.06.24-.18.19-.32l-2.12-5.63c-.08-.21.15-.37.54-.37l10.19.13c.24,0,.43-.06.51-.17Z"/>
        <path class="cls-10" d="m161.17,249.45l-21.06-5.21c-1.21-.3-1.95-1.53-1.65-2.74.3-1.21,1.53-1.95,2.74-1.65l16.11,3.99,2.03-16.61c.15-1.24,1.29-2.12,2.52-1.97,1.24.15,2.12,1.28,1.97,2.52l-2.64,21.68Z"/>
      </g>
    </g>
    <g>
      <path class="cls-10" d="m250.5,163.85l-168.81,23.54c-8.07,1.13-12.93-3.3-10.84-9.89l26.95-85.13c2.09-6.58,10.32-12.84,18.39-13.96l168.81-23.54c8.07-1.13,12.93,3.3,10.84,9.89l-26.95,85.13c-2.09,6.58-10.32,12.84-18.39,13.96Z"/>
      <path class="cls-11" d="m250.5,163.85l-168.81,23.54c-8.07,1.13-12.93-3.3-10.84-9.89l.44-1.39,198.05-27.61-.44,1.39c-2.09,6.58-10.32,12.84-18.39,13.96Z"/>
      <path class="cls-9" d="m293.51,72.16l-198.05,27.61,2.34-7.4c2.09-6.58,10.32-12.84,18.39-13.96l168.81-23.54c8.07-1.13,12.93,3.3,10.84,9.89l-2.34,7.4Z"/>
      <g>
        <path class="cls-4" d="m189.82,97.94c-.94,0-1.77-.7-1.9-1.66-.15-1.05.59-2.02,1.64-2.17l88.11-12.28c1.06-.15,2.02.59,2.17,1.64.15,1.05-.59,2.02-1.64,2.17l-88.11,12.28c-.09.01-.18.02-.27.02Z"/>
        <path class="cls-4" d="m182.94,119.68c-.94,0-1.77-.7-1.9-1.66-.15-1.05.59-2.02,1.64-2.17l88.11-12.28c1.05-.15,2.02.59,2.17,1.64.15,1.05-.59,2.02-1.64,2.17l-88.11,12.28c-.09.01-.18.02-.27.02Z"/>
        <path class="cls-7" d="m180.7,126.77c-.94,0-1.77-.7-1.9-1.66-.15-1.05.59-2.02,1.64-2.17l51.81-7.22c1.05-.15,2.02.59,2.17,1.64.15,1.05-.59,2.02-1.64,2.17l-51.81,7.22c-.09.01-.18.02-.27.02Z"/>
        <path class="cls-4" d="m176.16,141.11c-.94,0-1.77-.7-1.9-1.66-.15-1.05.59-2.02,1.64-2.17l88.11-12.28c1.06-.15,2.02.59,2.17,1.64.15,1.05-.59,2.02-1.64,2.17l-88.11,12.28c-.09.01-.18.02-.27.02Z"/>
        <path class="cls-7" d="m173.91,148.2c-.94,0-1.77-.7-1.9-1.66-.15-1.05.59-2.02,1.64-2.17l88.11-12.28c1.05-.15,2.02.59,2.17,1.64.15,1.05-.59,2.02-1.64,2.17l-88.11,12.28c-.09.01-.18.02-.27.02Z"/>
        <path class="cls-7" d="m171.7,155.17c-.94,0-1.77-.7-1.9-1.66-.15-1.05.59-2.02,1.64-2.17l66.33-9.25c1.05-.15,2.02.59,2.17,1.64.15,1.05-.59,2.02-1.64,2.17l-66.33,9.25c-.09.01-.18.02-.27.02Z"/>
        <path class="cls-7" d="m187.68,104.72c-.94,0-1.77-.7-1.9-1.66-.15-1.05.59-2.02,1.64-2.17l80.85-11.27c1.06-.15,2.02.59,2.17,1.64.15,1.05-.59,2.02-1.64,2.17l-80.85,11.27c-.09.01-.18.02-.27.02Z"/>
      </g>
      <path class="cls-10" d="m82,181.55c-.31,0-.59-.23-.63-.55-.05-.35.2-.67.55-.72l40.42-5.64c.35-.05.67.2.72.55.05.35-.2.67-.55.72l-40.42,5.64s-.06,0-.09,0Z"/>
      <path class="cls-10" d="m129.68,174.9c-.31,0-.59-.23-.63-.55-.05-.35.2-.67.55-.72l83.99-11.71c.35-.05.67.2.72.55.05.35-.2.67-.55.72l-83.99,11.71s-.06,0-.09,0Z"/>
      <path class="cls-10" d="m220.38,162.26c-.31,0-.59-.23-.63-.55-.05-.35.2-.67.55-.72l33.16-4.62c.36-.05.68.2.72.55.05.35-.2.67-.55.72l-33.16,4.62s-.06,0-.09,0Z"/>
      <path class="cls-9" d="m79.28,189c-3.65,0-6.68-1.17-8.52-3.35-1.88-2.23-2.34-5.28-1.29-8.59l26.95-85.13c2.27-7.17,10.87-13.74,19.57-14.95l168.81-23.54c4.8-.67,8.86.48,11.12,3.16,1.88,2.23,2.34,5.28,1.29,8.59l-26.95,85.13c-2.27,7.17-10.87,13.74-19.57,14.95l-.2-1.43.2,1.43-168.81,23.54c-.9.13-1.77.19-2.61.19ZM287.44,56.14c-.71,0-1.46.05-2.23.16l-168.81,23.54c-7.56,1.05-15.29,6.87-17.22,12.97l-26.95,85.13c-.75,2.36-.49,4.39.75,5.86,1.61,1.91,4.72,2.7,8.52,2.17l168.81-23.54c7.56-1.05,15.28-6.87,17.22-12.97l26.95-85.13c.75-2.36.49-4.39-.75-5.86-1.28-1.52-3.51-2.33-6.28-2.33Z"/>
      <g>
        <path class="cls-9" d="m129.05,108.24l8.4-5.94c.32-.23.7-.27.89-.11l4.94,4.29c.12.1.32.12.54.06l9.33-2.69c.35-.1.63.02.64.28l.31,6.91c0,.16.12.28.31.31l7.77,1.28c.29.05.39.31.22.6l-4.41,7.69c-.1.18-.11.36-.01.48l4.12,4.9c.16.19.05.51-.26.76l-7.94,6.4c-.19.15-.31.34-.32.52l-.63,7.22c-.02.27-.31.58-.67.71l-9.35,3.4c-.22.08-.43.24-.55.42l-5.21,7.6c-.2.29-.59.49-.9.47l-8.25-.51c-.2-.01-.43.06-.63.21l-8.4,5.94c-.32.23-.7.27-.89.11l-4.94-4.29c-.12-.1-.32-.12-.54-.06l-9.33,2.69c-.35.1-.63-.02-.64-.28l-.31-6.91c0-.16-.12-.28-.31-.31l-7.77-1.28c-.29-.05-.39-.31-.22-.6l4.41-7.69c.1-.18.11-.36.01-.48l-4.12-4.9c-.16-.19-.05-.51.26-.76l7.94-6.4c.19-.15.31-.34.32-.52l.63-7.22c.02-.27.31-.58.67-.71l9.35-3.4c.22-.08.43-.24.55-.42l5.21-7.6c.2-.29.59-.49.9-.47l8.25.51c.2.01.43-.06.63-.21Z"/>
        <path class="cls-10" d="m121.61,147.83l-11.32-7.92c-1.09-.77-1.36-2.28-.6-3.37.77-1.09,2.27-1.36,3.37-.6l8,5.6,24.19-24.12c.95-.94,2.48-.94,3.42,0,.94.95.94,2.48,0,3.42l-27.06,26.98Z"/>
      </g>
    </g>
  </g>
</svg>