<?xml version="1.0" encoding="UTF-8"?>
<svg id="Layer_1" data-name="Layer 1" xmlns="http://www.w3.org/2000/svg" viewBox="0 0 400 400">
  <defs>
    <style>
      .cls-1 {
        fill: none;
        stroke: #c1e1f2;
        stroke-linecap: round;
      }

      .cls-1, .cls-2, .cls-3 {
        stroke-miterlimit: 10;
        stroke-width: 7.68px;
      }

      .cls-2, .cls-3 {
        stroke: #0687cb;
      }

      .cls-2, .cls-4 {
        fill: #0687cb;
      }

      .cls-5 {
        fill: #bfdff0;
        opacity: .5;
      }

      .cls-5, .cls-4 {
        stroke-width: 0px;
      }

      .cls-3 {
        fill: #fff;
      }
    </style>
  </defs>
  <path class="cls-3" d="m33.27,133.44h333.46v161.12c0,11.23-9.12,20.34-20.34,20.34H33.27v-181.46h0Z"/>
  <rect class="cls-2" x="33.27" y="85.1" width="333.46" height="48.34"/>
  <line class="cls-1" x1="76.52" y1="109.27" x2="319.11" y2="109.27"/>
  <g>
    <path class="cls-4" d="m171.76,241.7l-35.08,45.08h.01c-2.56,3.29-1.97,8.03,1.32,10.59,3.29,2.56,8.02,1.97,10.58-1.32h.01s35.08-45.07,35.08-45.07l-11.92-9.28Z"/>
    <circle class="cls-5" cx="206.03" cy="203.53" r="49.65"/>
    <path class="cls-4" d="m260.1,182.13c-12.66-28.99-46.43-42.22-75.41-29.56-28.99,12.66-42.22,46.43-29.56,75.41,12.66,28.99,46.43,42.22,75.41,29.56,28.99-12.66,42.22-46.43,29.56-75.41Zm-94.8,41.41c-10.21-23.37.46-50.59,23.83-60.8,23.37-10.21,50.59.46,60.8,23.83,10.21,23.37-.46,50.59-23.83,60.8-23.37,10.21-50.59-.46-60.8-23.83Z"/>
  </g>
</svg>