<?xml version="1.0" encoding="UTF-8"?>
<svg id="Layer_1" data-name="Layer 1" xmlns="http://www.w3.org/2000/svg" viewBox="0 0 400 400">
  <defs>
    <style>
      .cls-1 {
        fill: #76787a;
      }

      .cls-1, .cls-2, .cls-3, .cls-4 {
        stroke-width: 0px;
      }

      .cls-2 {
        fill: #ccc;
      }

      .cls-3 {
        fill: #8cc63e;
      }

      .cls-4 {
        fill: #fff;
      }
    </style>
  </defs>
  <rect class="cls-4" x="16.67" y="76.34" width="366.66" height="247.33" rx="18.72" ry="18.72" transform="translate(.95 -.94) rotate(.27)"/>
  <path class="cls-2" d="m361.13,324.47l-315.13-1.61c-6.76-.03-29.86-12.02-29.83-18.78l.05-11.48,366.66,1.73-.08,8.65c-.03,6.76-14.91,21.53-21.67,21.5Z"/>
  <path class="cls-3" d="m383.71,121.06l-366.66-1.73h0c.11-24.22,1.71-46.26,44.06-43.65l278.95,1.32c43.65-1.86,43.76,19.84,43.65,44.06h0Z"/>
  <g>
    <path class="cls-1" d="m197.37,146.54c-2.21-.03-4-1.83-3.98-4.05.01-2.23,1.82-4.03,4.05-4.01l163.13.77h.03c2.21.03,4,1.83,3.98,4.05-.01,2.23-1.82,4.03-4.05,4.01l-163.13-.77h-.03Z"/>
    <path class="cls-1" d="m197.14,195.87c-2.21-.03-4-1.83-3.98-4.05,0-2.23,1.82-4.03,4.05-4.01l163.13.77h.03c2.21.03,4,1.83,3.98,4.05,0,2.23-1.82,4.03-4.05,4.01l-163.13-.77h-.03Z"/>
    <path class="cls-2" d="m197.07,211.98c-2.21-.03-4-1.83-3.98-4.05,0-2.23,1.82-4.03,4.05-4.01l95.91.45h.03c2.21.03,4,1.83,3.98,4.05-.01,2.23-1.82,4.03-4.05,4.01l-95.91-.45h-.03Z"/>
    <path class="cls-1" d="m196.91,244.5c-2.21-.03-4-1.83-3.98-4.05.01-2.23,1.82-4.03,4.05-4.01l163.13.77h.03c2.21.03,4,1.83,3.98,4.05-.01,2.23-1.82,4.03-4.05,4.01l-163.13-.77h-.03Z"/>
    <path class="cls-2" d="m196.84,260.62c-2.21-.03-4-1.83-3.98-4.05,0-2.23,1.82-4.03,4.05-4.01l163.12.77h.03c2.21.03,4,1.83,3.98,4.05,0,2.23-1.82,4.03-4.05,4.01l-163.12-.77h-.03Z"/>
    <path class="cls-2" d="m196.75,276.43c-2.21-.03-4-1.83-3.98-4.05.01-2.23,1.82-4.03,4.05-4.01l122.8.58h.03c2.21.03,4,1.83,3.98,4.05-.01,2.23-1.82,4.03-4.05,4.01l-122.8-.58h-.03Z"/>
    <path class="cls-2" d="m197.3,161.93c-2.21-.03-4-1.83-3.98-4.05,0-2.23,1.82-4.03,4.05-4.01l149.67.7h.03c2.21.03,4,1.83,3.98,4.05,0,2.23-1.82,4.03-4.05,4.01l-149.67-.7h-.03Z"/>
  </g>
  <path class="cls-4" d="m39.84,308.98c-.73,0-1.33-.61-1.32-1.35,0-.75.6-1.34,1.34-1.34l74.84.36h.01c.73,0,1.33.61,1.32,1.35,0,.75-.6,1.34-1.34,1.34l-74.84-.36h-.01Z"/>
  <path class="cls-4" d="m128.12,309.39c-.73,0-1.33-.61-1.32-1.35,0-.75.6-1.34,1.34-1.34l155.5.74h.01c.73,0,1.33.61,1.32,1.35,0,.75-.6,1.34-1.34,1.34l-155.5-.74h-.01Z"/>
  <path class="cls-4" d="m296.02,310.18c-.73,0-1.33-.61-1.32-1.35,0-.75.6-1.34,1.34-1.34l61.39.29h.01c.73,0,1.33.61,1.32,1.35,0,.75-.6,1.34-1.34,1.34l-61.39-.29h-.01Z"/>
  <path class="cls-3" d="m43.78,325.47c-16.69-.21-30.17-13.9-30.1-30.63l.91-191.43c.04-8.14,3.24-15.78,9.02-21.52,5.78-5.73,13.46-8.86,21.6-8.83l310.76,1.47c.09,0,.16,0,.25,0,8.05.1,15.6,3.3,21.28,9.03,5.73,5.79,8.86,13.46,8.82,21.6l-.9,191.43c-.08,16.82-13.82,30.43-30.64,30.34h.01s-310.77-1.47-310.77-1.47c-.09,0-.16,0-.25,0ZM356.16,79.61h-.2s-310.76-1.47-310.76-1.47c-6.8-.03-13.19,2.59-18.01,7.36-4.82,4.77-7.49,11.14-7.52,17.93l-.91,191.43c-.06,13.94,11.19,25.35,25.1,25.52h.19s310.78,1.47,310.78,1.47c14,.06,25.45-11.27,25.52-25.29l.9-191.43c.03-6.78-2.58-13.18-7.36-18-4.73-4.77-11.02-7.44-17.72-7.52Z"/>
  <g>
    <path class="cls-3" d="m87.16,150.9l12.67-11.27c.48-.43,1.2-.41,1.66.04l12.14,11.87c.29.28.69.4,1.08.33l16.44-3.23c.62-.12,1.23.26,1.42.89l4.76,16.54c.11.39.4.71.78.84l15.8,5.68c.6.22.94.86.79,1.5l-3.9,16.78c-.09.4,0,.82.27,1.13l10.93,13.06c.41.5.4,1.23-.04,1.71l-11.51,12.52c-.27.3-.39.71-.32,1.11l3.13,16.95c.12.64-.25,1.27-.86,1.46l-16.04,4.91c-.38.12-.68.42-.82.8l-5.51,16.29c-.21.62-.84.97-1.45.82l-16.27-4.02c-.39-.1-.79,0-1.09.27l-12.67,11.27c-.48.43-1.2.41-1.66-.04l-12.14-11.87c-.29-.28-.69-.4-1.08-.33l-16.44,3.23c-.62.12-1.23-.26-1.42-.89l-4.76-16.54c-.11-.39-.4-.71-.78-.84l-15.8-5.68c-.6-.22-.94-.86-.79-1.5l3.9-16.78c.09-.4,0-.82-.27-1.13l-10.93-13.06c-.41-.5-.4-1.23.04-1.71l11.51-12.52c.27-.3.39-.71.32-1.11l-3.13-16.95c-.12-.64.25-1.27.86-1.46l16.04-4.91c.38-.12.68-.42.82-.8l5.51-16.29c.21-.62.84-.97,1.45-.82l16.27,4.02c.39.1.79,0,1.09-.27Z"/>
    <path class="cls-4" d="m95.24,242.47l-27.12-23.07c-2.14-1.81-2.4-5.01-.58-7.15,1.81-2.14,5.01-2.4,7.15-.58l18.39,15.64,31.04-47.23c1.53-2.33,4.69-2.99,7.02-1.45,2.34,1.54,3,4.68,1.46,7.02l-37.35,56.82Z"/>
  </g>
</svg>